<?xml version="1.0" encoding="utf-8"?>
<!-- Generator: Adobe Illustrator 16.0.4, SVG Export Plug-In . SVG Version: 6.00 Build 0)  -->
<!DOCTYPE svg PUBLIC "-//W3C//DTD SVG 1.1//EN" "http://www.w3.org/Graphics/SVG/1.1/DTD/svg11.dtd">
<svg class="logo" version="1.1" id="Ebene_1" xmlns="http://www.w3.org/2000/svg" xmlns:xlink="http://www.w3.org/1999/xlink" x="0px" y="0px"
	 viewBox="0 0 143.13 36.019" enable-background="new 0 0 143.13 36.019" xml:space="preserve">
<g>
	<g>
		<path fill="#74706C" d="M34.951,36.019H3.366C1.511,36.019,0,34.371,0,32.344V3.673C0,1.648,1.511,0,3.366,0h31.584
			c1.855,0,3.366,1.648,3.366,3.673v28.671C38.317,34.371,36.806,36.019,34.951,36.019z M3.366,1.987
			c-0.76,0-1.378,0.756-1.378,1.686v28.671c0,0.931,0.618,1.688,1.378,1.688h31.584c0.76,0,1.378-0.758,1.378-1.688V3.673
			c0-0.93-0.618-1.686-1.378-1.686H3.366z"/>
	</g>
</g>
<g id="rad_x5F_1">
	<g>
		<path fill="none" d="M19.628,16.632c-0.021,0.006-0.047,0.022-0.058,0.043c-0.022,0.047-0.037,0.098-0.054,0.147
			c-0.07,0.208-0.132,0.419-0.21,0.624c-0.097,0.252-0.207,0.496-0.311,0.744c-0.007,0.016-0.02,0.029-0.029,0.042
			c-0.089,0.114-0.091,0.192-0.018,0.314c0.085,0.141,0.168,0.282,0.25,0.425c0.119,0.207,0.238,0.416,0.355,0.625
			c0.126,0.227,0.25,0.455,0.375,0.682c-0.078,0.08-0.156,0.16-0.233,0.24c-0.189,0.201-0.379,0.403-0.569,0.604
			c-0.19,0.203-0.38,0.403-0.569,0.605c-0.169,0.182-0.337,0.365-0.506,0.548c-0.019,0.019-0.038,0.039-0.059,0.051
			c-0.017,0.008-0.043,0.011-0.058,0.003c-0.307-0.189-0.613-0.379-0.918-0.57c-0.23-0.145-0.459-0.29-0.688-0.436
			c-0.07-0.045-0.136-0.09-0.216-0.012c-0.035,0.033-0.083,0.05-0.127,0.074c-0.445,0.249-0.911,0.437-1.389,0.584
			c-0.04,0.013-0.059,0.031-0.07,0.079c-0.05,0.226-0.106,0.45-0.16,0.675c-0.069,0.29-0.137,0.58-0.206,0.87
			c-0.037,0.158-0.072,0.317-0.108,0.477h7.481v-7.953c-0.288,0.077-0.576,0.155-0.865,0.232
			C20.324,16.443,19.976,16.537,19.628,16.632z"/>
	</g>
	<g>
		<path fill="none" d="M10.919,22.486c-0.035-0.146-0.069-0.291-0.099-0.438c-0.01-0.048-0.031-0.064-0.071-0.079
			c-0.271-0.098-0.545-0.187-0.81-0.304c-0.259-0.114-0.507-0.259-0.762-0.388c-0.022-0.01-0.057-0.008-0.079,0.005
			c-0.092,0.051-0.182,0.107-0.271,0.165c-0.358,0.229-0.715,0.458-1.073,0.686c-0.124,0.078-0.247,0.155-0.372,0.232
			c-0.097-0.098-0.192-0.193-0.286-0.292c-0.192-0.203-0.383-0.406-0.574-0.61c-0.124-0.13-0.247-0.26-0.37-0.391
			c-0.227-0.242-0.451-0.484-0.678-0.725c-0.038-0.041-0.04-0.07-0.012-0.118c0.139-0.249,0.276-0.499,0.416-0.749
			c0.041-0.074,0.085-0.146,0.126-0.221c0.146-0.265,0.293-0.529,0.438-0.797c0.01-0.02,0.008-0.061-0.003-0.083
			c-0.031-0.065-0.071-0.124-0.103-0.189c-0.061-0.127-0.125-0.253-0.179-0.384c-0.072-0.174-0.14-0.349-0.2-0.527
			c-0.054-0.158-0.095-0.321-0.142-0.481c-0.026-0.088-0.062-0.153-0.156-0.171c-0.162-0.031-0.321-0.082-0.48-0.124
			c-0.464-0.122-0.928-0.245-1.392-0.369v7.938h7.522c-0.065-0.264-0.131-0.528-0.196-0.792
			C11.049,23.014,10.983,22.75,10.919,22.486z"/>
	</g>
	<g>
		<path fill="none" d="M5.638,12.71c0.085-0.021,0.144-0.057,0.175-0.16c0.068-0.23,0.14-0.46,0.224-0.683
			c0.095-0.25,0.204-0.492,0.308-0.738c0.007-0.016,0.019-0.028,0.029-0.042c0.091-0.121,0.095-0.205,0.013-0.326
			c-0.012-0.018-0.029-0.033-0.04-0.051c-0.151-0.269-0.3-0.538-0.451-0.806C5.856,9.836,5.812,9.77,5.774,9.699
			C5.661,9.495,5.548,9.291,5.439,9.084C5.43,9.066,5.434,9.022,5.447,9.007C5.505,8.938,5.569,8.875,5.63,8.81
			c0.193-0.206,0.386-0.411,0.579-0.616c0.192-0.203,0.384-0.405,0.575-0.609c0.165-0.176,0.328-0.353,0.492-0.53
			C7.293,7.038,7.311,7.02,7.331,7.01c0.018-0.008,0.043-0.015,0.058-0.006c0.38,0.235,0.759,0.472,1.139,0.709
			C8.713,7.83,8.898,7.946,9.084,8.061c0.016,0.01,0.043,0.01,0.062,0.001C9.201,8.033,9.253,7.997,9.31,7.967
			c0.164-0.086,0.323-0.183,0.492-0.251c0.312-0.128,0.63-0.24,0.945-0.36c0.018-0.008,0.038-0.034,0.043-0.056
			c0.063-0.257,0.125-0.515,0.186-0.772c0.058-0.243,0.116-0.485,0.172-0.728c0.042-0.184,0.081-0.369,0.122-0.553H3.788V13.2
			c0.311-0.083,0.621-0.167,0.932-0.249C5.025,12.87,5.331,12.787,5.638,12.71z"/>
	</g>
	<g>
		<path fill="none" d="M17.032,12.801c-0.05-0.149-0.122-0.289-0.185-0.432c-0.108-0.245-0.239-0.471-0.396-0.678
			c-0.123-0.163-0.249-0.324-0.379-0.479c-0.232-0.275-0.493-0.511-0.782-0.7c-0.223-0.147-0.449-0.292-0.684-0.408
			c-0.484-0.24-0.994-0.375-1.521-0.423c-0.604-0.055-1.199,0.005-1.784,0.19c-0.476,0.149-0.92,0.381-1.335,0.684
			c-0.281,0.205-0.538,0.447-0.772,0.716c-0.129,0.148-0.254,0.306-0.363,0.474c-0.138,0.214-0.264,0.44-0.383,0.669
			c-0.075,0.144-0.138,0.299-0.19,0.456c-0.073,0.22-0.148,0.443-0.191,0.672c-0.153,0.79-0.167,1.583,0.04,2.365
			c0.057,0.215,0.127,0.426,0.198,0.636c0.096,0.285,0.225,0.551,0.385,0.794c0.122,0.183,0.247,0.365,0.375,0.542
			c0.17,0.232,0.369,0.428,0.578,0.614c0.241,0.216,0.5,0.399,0.772,0.559c0.359,0.207,0.736,0.359,1.129,0.462
			c0.366,0.096,0.738,0.14,1.008,0.143c0.507,0.003,0.903-0.049,1.293-0.154c0.478-0.131,0.928-0.34,1.351-0.623
			c0.266-0.177,0.519-0.379,0.741-0.621c0.205-0.223,0.401-0.461,0.577-0.713c0.145-0.207,0.263-0.441,0.381-0.672
			c0.076-0.148,0.14-0.309,0.191-0.472c0.073-0.226,0.139-0.456,0.188-0.69c0.042-0.199,0.064-0.405,0.08-0.609
			c0.041-0.544,0.028-1.084-0.113-1.61C17.176,13.258,17.109,13.027,17.032,12.801z"/>
	</g>
	<g>
		<path fill="none" d="M14.042,5.246c0.056,0.238,0.112,0.475,0.167,0.713c0.069,0.295,0.138,0.591,0.206,0.887
			c0.033,0.142,0.064,0.283,0.093,0.425c0.009,0.045,0.026,0.064,0.064,0.078c0.268,0.097,0.541,0.184,0.803,0.3
			c0.261,0.114,0.512,0.259,0.769,0.388c0.025,0.012,0.065,0.009,0.091-0.005c0.08-0.044,0.155-0.098,0.232-0.147
			c0.292-0.186,0.586-0.369,0.878-0.554c0.189-0.12,0.377-0.241,0.568-0.358c0.014-0.009,0.044-0.003,0.057,0.01
			c0.154,0.157,0.307,0.315,0.459,0.476c0.172,0.182,0.34,0.368,0.511,0.552c0.068,0.073,0.136,0.145,0.205,0.218
			c0.238,0.252,0.477,0.504,0.717,0.755c0.03,0.031,0.03,0.055,0.009,0.092c-0.092,0.167-0.182,0.336-0.274,0.502
			c-0.085,0.152-0.175,0.301-0.26,0.454c-0.152,0.273-0.303,0.549-0.452,0.825c-0.011,0.02-0.008,0.059,0.002,0.081
			c0.033,0.07,0.076,0.135,0.11,0.205c0.064,0.133,0.129,0.268,0.186,0.406c0.071,0.174,0.137,0.35,0.198,0.528
			c0.049,0.146,0.086,0.296,0.129,0.445c0.025,0.083,0.056,0.15,0.15,0.167c0.164,0.03,0.325,0.081,0.486,0.124
			c0.464,0.125,0.928,0.248,1.391,0.372V5.246H14.042z"/>
	</g>
	<g>
		<path fill="#47AAB7" d="M19.66,12.688c-0.094-0.017-0.125-0.084-0.15-0.167c-0.043-0.148-0.081-0.299-0.129-0.445
			c-0.061-0.178-0.127-0.354-0.198-0.528c-0.057-0.138-0.122-0.272-0.186-0.406c-0.034-0.07-0.077-0.135-0.11-0.205
			c-0.01-0.022-0.013-0.062-0.002-0.081c0.149-0.276,0.3-0.552,0.452-0.825c0.084-0.153,0.174-0.302,0.26-0.454
			c0.093-0.166,0.182-0.335,0.274-0.502c0.021-0.038,0.021-0.062-0.009-0.092c-0.24-0.251-0.479-0.503-0.717-0.755
			c-0.068-0.073-0.137-0.145-0.205-0.218c-0.171-0.185-0.339-0.37-0.511-0.552c-0.152-0.161-0.305-0.319-0.459-0.476
			c-0.012-0.013-0.043-0.019-0.057-0.01c-0.19,0.117-0.379,0.239-0.568,0.358c-0.292,0.185-0.586,0.369-0.878,0.554
			c-0.078,0.049-0.153,0.103-0.232,0.147c-0.025,0.014-0.065,0.017-0.091,0.005c-0.257-0.128-0.508-0.273-0.769-0.388
			c-0.263-0.116-0.535-0.203-0.803-0.3c-0.039-0.013-0.056-0.033-0.064-0.078c-0.028-0.142-0.06-0.283-0.093-0.425
			c-0.067-0.296-0.136-0.592-0.206-0.887c-0.054-0.238-0.11-0.476-0.167-0.713H11.27c-0.041,0.185-0.08,0.37-0.122,0.553
			c-0.056,0.243-0.115,0.485-0.172,0.728c-0.061,0.258-0.122,0.515-0.186,0.772c-0.006,0.022-0.026,0.048-0.043,0.056
			c-0.315,0.121-0.633,0.232-0.945,0.36C9.633,7.784,9.474,7.881,9.31,7.967c-0.057,0.03-0.109,0.066-0.164,0.095
			C9.128,8.071,9.1,8.071,9.084,8.061C8.898,7.946,8.713,7.83,8.527,7.714C8.147,7.476,7.769,7.239,7.388,7.004
			C7.374,6.996,7.348,7.002,7.331,7.01C7.311,7.02,7.293,7.038,7.276,7.055c-0.165,0.177-0.328,0.354-0.492,0.53
			c-0.19,0.204-0.383,0.407-0.575,0.609C6.017,8.399,5.823,8.604,5.63,8.81C5.569,8.875,5.505,8.938,5.447,9.007
			C5.434,9.022,5.43,9.066,5.439,9.084c0.109,0.206,0.222,0.411,0.335,0.615c0.038,0.07,0.082,0.137,0.121,0.206
			c0.151,0.268,0.3,0.537,0.451,0.806c0.011,0.018,0.028,0.033,0.04,0.051c0.082,0.122,0.078,0.206-0.013,0.326
			c-0.01,0.014-0.022,0.026-0.029,0.042c-0.104,0.246-0.213,0.488-0.308,0.738c-0.084,0.223-0.156,0.453-0.224,0.683
			c-0.031,0.103-0.09,0.139-0.175,0.16c-0.307,0.077-0.613,0.159-0.918,0.24c-0.311,0.083-0.621,0.166-0.932,0.249v2.934
			c0.464,0.124,0.928,0.247,1.392,0.369c0.159,0.042,0.318,0.093,0.48,0.124c0.094,0.018,0.13,0.083,0.156,0.171
			c0.046,0.16,0.087,0.323,0.142,0.481c0.06,0.179,0.128,0.354,0.2,0.527c0.054,0.131,0.118,0.257,0.179,0.384
			c0.032,0.065,0.072,0.124,0.103,0.189c0.011,0.022,0.013,0.063,0.003,0.083c-0.144,0.268-0.291,0.532-0.438,0.797
			c-0.041,0.074-0.085,0.146-0.126,0.221c-0.139,0.25-0.276,0.5-0.416,0.749c-0.027,0.048-0.025,0.077,0.012,0.118
			c0.227,0.24,0.451,0.482,0.678,0.725c0.123,0.131,0.247,0.261,0.37,0.391c0.191,0.204,0.382,0.407,0.574,0.61
			c0.094,0.099,0.188,0.194,0.286,0.292c0.125-0.077,0.249-0.154,0.372-0.232c0.357-0.228,0.714-0.457,1.073-0.686
			c0.089-0.058,0.179-0.114,0.271-0.165c0.022-0.013,0.057-0.015,0.079-0.005c0.254,0.129,0.502,0.273,0.762,0.388
			c0.265,0.117,0.539,0.206,0.81,0.304c0.04,0.015,0.061,0.031,0.071,0.079c0.03,0.147,0.064,0.292,0.099,0.438
			c0.064,0.265,0.13,0.528,0.196,0.793c0.065,0.264,0.13,0.528,0.196,0.792h2.745c0.036-0.159,0.071-0.318,0.108-0.477
			c0.068-0.29,0.137-0.58,0.206-0.87c0.054-0.225,0.11-0.449,0.16-0.675c0.011-0.048,0.03-0.066,0.07-0.079
			c0.478-0.147,0.943-0.335,1.389-0.584c0.043-0.024,0.092-0.041,0.127-0.074c0.08-0.078,0.146-0.033,0.216,0.012
			c0.229,0.146,0.458,0.291,0.688,0.436c0.305,0.191,0.611,0.381,0.918,0.57c0.015,0.008,0.041,0.005,0.058-0.003
			c0.021-0.012,0.041-0.032,0.059-0.051c0.168-0.183,0.336-0.366,0.506-0.548c0.189-0.202,0.379-0.402,0.569-0.605
			c0.189-0.2,0.379-0.402,0.569-0.604c0.077-0.08,0.155-0.16,0.233-0.24c-0.125-0.227-0.249-0.455-0.375-0.682
			c-0.117-0.209-0.236-0.418-0.355-0.625c-0.082-0.143-0.165-0.284-0.25-0.425c-0.073-0.122-0.071-0.2,0.018-0.314
			c0.009-0.013,0.022-0.026,0.029-0.042c0.104-0.248,0.213-0.492,0.311-0.744c0.078-0.205,0.14-0.416,0.21-0.624
			c0.017-0.05,0.031-0.101,0.054-0.147c0.01-0.021,0.037-0.037,0.058-0.043c0.348-0.096,0.696-0.189,1.044-0.282
			c0.289-0.077,0.577-0.155,0.865-0.232v-2.934c-0.463-0.124-0.926-0.248-1.391-0.372C19.985,12.769,19.824,12.718,19.66,12.688z
			 M17.353,15.101c-0.016,0.204-0.039,0.41-0.08,0.609c-0.049,0.234-0.115,0.465-0.188,0.69c-0.051,0.163-0.115,0.323-0.191,0.472
			c-0.118,0.23-0.236,0.465-0.381,0.672c-0.176,0.252-0.372,0.49-0.577,0.713c-0.222,0.242-0.476,0.444-0.741,0.621
			c-0.423,0.283-0.874,0.492-1.351,0.623c-0.39,0.105-0.786,0.157-1.293,0.154c-0.27-0.003-0.642-0.047-1.008-0.143
			c-0.393-0.103-0.77-0.255-1.129-0.462c-0.272-0.159-0.531-0.343-0.772-0.559c-0.208-0.187-0.408-0.382-0.578-0.614
			c-0.129-0.177-0.254-0.359-0.375-0.542c-0.16-0.243-0.289-0.509-0.385-0.794c-0.07-0.21-0.141-0.421-0.198-0.636
			c-0.207-0.782-0.193-1.575-0.04-2.365c0.043-0.229,0.119-0.453,0.191-0.672c0.052-0.157,0.115-0.312,0.19-0.456
			c0.12-0.229,0.245-0.455,0.383-0.669c0.109-0.168,0.234-0.325,0.363-0.474c0.235-0.27,0.491-0.511,0.772-0.716
			c0.415-0.303,0.859-0.534,1.335-0.684c0.585-0.185,1.18-0.245,1.784-0.19c0.528,0.048,1.038,0.183,1.521,0.423
			c0.235,0.117,0.461,0.261,0.684,0.408c0.289,0.189,0.55,0.425,0.782,0.7c0.13,0.155,0.256,0.316,0.379,0.479
			c0.157,0.207,0.289,0.433,0.396,0.678c0.063,0.143,0.135,0.283,0.185,0.432c0.077,0.227,0.144,0.458,0.207,0.69
			C17.38,14.017,17.394,14.557,17.353,15.101z"/>
	</g>
</g>
<g id="rad_x5F_2">
	<g>
		<path fill="none" d="M26.407,29.652c-0.045-0.109-0.089-0.219-0.13-0.329c-0.014-0.036-0.032-0.045-0.064-0.051
			c-0.224-0.04-0.448-0.073-0.668-0.129c-0.215-0.055-0.426-0.134-0.639-0.199c-0.019-0.006-0.046,0-0.062,0.014
			c-0.065,0.052-0.128,0.107-0.192,0.164c-0.251,0.226-0.502,0.451-0.754,0.677c-0.086,0.078-0.174,0.154-0.263,0.231
			c-0.086-0.064-0.172-0.126-0.256-0.19c-0.174-0.132-0.347-0.266-0.521-0.397c-0.111-0.086-0.223-0.17-0.334-0.256
			c-0.205-0.158-0.409-0.317-0.613-0.474c-0.034-0.026-0.04-0.049-0.024-0.091c0.08-0.211,0.156-0.424,0.235-0.637
			c0.023-0.063,0.049-0.125,0.073-0.188c0.083-0.227,0.165-0.453,0.245-0.68c0.007-0.017,0-0.048-0.01-0.063
			c-0.032-0.047-0.07-0.088-0.103-0.135c-0.063-0.09-0.127-0.181-0.185-0.275c-0.076-0.125-0.15-0.252-0.218-0.384
			c-0.061-0.115-0.112-0.236-0.167-0.355c-0.03-0.065-0.066-0.11-0.142-0.112c-0.13-0.003-0.26-0.021-0.389-0.032
			c-0.376-0.034-0.752-0.068-1.128-0.102c-0.116-0.762-0.232-1.523-0.348-2.285v7.463H26.9c-0.083-0.196-0.165-0.396-0.247-0.592
			C26.57,30.047,26.488,29.849,26.407,29.652z"/>
	</g>
	<g>
		<path fill="none" d="M21.131,22.745c0.063-0.028,0.105-0.063,0.117-0.147c0.027-0.189,0.055-0.378,0.094-0.562
			c0.044-0.208,0.101-0.412,0.152-0.617c0.003-0.013,0.012-0.023,0.018-0.035c0.057-0.107,0.05-0.172-0.029-0.256
			c-0.012-0.014-0.027-0.021-0.038-0.035c-0.149-0.189-0.298-0.379-0.447-0.567c-0.039-0.05-0.081-0.096-0.119-0.145
			c-0.112-0.144-0.224-0.288-0.334-0.435c-0.009-0.013-0.011-0.047-0.003-0.062c0.037-0.061,0.079-0.118,0.12-0.178
			c0.127-0.186,0.252-0.371,0.378-0.557c0.125-0.184,0.251-0.367,0.375-0.551c0.107-0.16,0.214-0.32,0.321-0.479
			c0.01-0.016,0.022-0.033,0.037-0.043c0.012-0.009,0.032-0.018,0.044-0.012c0.324,0.132,0.648,0.266,0.972,0.4
			c0.158,0.065,0.316,0.131,0.476,0.196c0.014,0.005,0.035,0.002,0.047-0.007c0.04-0.031,0.077-0.066,0.117-0.096
			c0.117-0.09,0.23-0.186,0.354-0.263c0.228-0.142,0.462-0.271,0.693-0.407c0.014-0.008,0.026-0.031,0.028-0.049
			c0.019-0.209,0.035-0.419,0.053-0.627c0.016-0.197,0.033-0.393,0.047-0.59c0.012-0.149,0.019-0.299,0.029-0.447
			c0.721-0.124,1.441-0.246,2.161-0.37h-7.048v7.567c0.232-0.105,0.464-0.213,0.696-0.318
			C20.672,22.951,20.901,22.845,21.131,22.745z"/>
	</g>
	<g>
		<path fill="none" d="M32.5,23.934c-0.017,0.007-0.035,0.023-0.041,0.041c-0.011,0.039-0.018,0.081-0.024,0.122
			c-0.03,0.172-0.053,0.345-0.089,0.513c-0.046,0.21-0.103,0.415-0.154,0.622c-0.004,0.013-0.011,0.025-0.018,0.037
			c-0.055,0.101-0.048,0.161,0.024,0.247c0.082,0.098,0.164,0.196,0.245,0.297c0.117,0.146,0.234,0.292,0.351,0.439
			c0.125,0.16,0.249,0.32,0.373,0.48c-0.051,0.073-0.103,0.145-0.152,0.218c-0.124,0.182-0.248,0.364-0.372,0.547
			c-0.125,0.182-0.249,0.364-0.372,0.547c-0.11,0.164-0.22,0.328-0.329,0.493c-0.013,0.018-0.024,0.035-0.04,0.047
			c-0.013,0.01-0.032,0.015-0.046,0.01c-0.261-0.106-0.521-0.213-0.782-0.321c-0.196-0.081-0.392-0.164-0.588-0.247
			c-0.06-0.025-0.116-0.05-0.169,0.019c-0.023,0.032-0.06,0.052-0.091,0.076c-0.317,0.253-0.657,0.461-1.013,0.64
			c-0.029,0.015-0.043,0.031-0.045,0.07c-0.013,0.183-0.029,0.364-0.045,0.546c-0.02,0.235-0.038,0.471-0.058,0.707
			c-0.009,0.129-0.018,0.257-0.026,0.386c-0.713,0.122-1.427,0.244-2.14,0.366h7.026v-7.557c-0.215,0.099-0.431,0.197-0.646,0.296
			C33.019,23.694,32.759,23.813,32.5,23.934z"/>
	</g>
	<g>
		<path fill="none" d="M26.795,15.805c0.072,0.177,0.144,0.355,0.214,0.532c0.089,0.223,0.178,0.443,0.266,0.666
			c0.042,0.105,0.083,0.211,0.122,0.318c0.013,0.033,0.028,0.047,0.06,0.052c0.221,0.04,0.444,0.071,0.663,0.126
			c0.217,0.055,0.429,0.135,0.644,0.199c0.022,0.006,0.053,0,0.07-0.016c0.057-0.045,0.109-0.098,0.164-0.146
			c0.207-0.184,0.413-0.365,0.619-0.549c0.134-0.118,0.266-0.237,0.4-0.355c0.01-0.008,0.033-0.008,0.044,0
			c0.14,0.102,0.277,0.205,0.415,0.311c0.155,0.119,0.309,0.242,0.464,0.361c0.062,0.048,0.123,0.096,0.186,0.143
			c0.216,0.166,0.432,0.329,0.647,0.493c0.027,0.021,0.031,0.039,0.02,0.071c-0.054,0.142-0.103,0.285-0.154,0.428
			c-0.049,0.131-0.102,0.258-0.149,0.389c-0.086,0.233-0.172,0.468-0.254,0.703c-0.006,0.018,0.001,0.048,0.011,0.063
			c0.035,0.05,0.076,0.095,0.11,0.145c0.066,0.096,0.133,0.191,0.193,0.292c0.076,0.125,0.148,0.254,0.217,0.385
			c0.056,0.107,0.102,0.221,0.154,0.33c0.029,0.061,0.061,0.108,0.136,0.109c0.132,0.002,0.263,0.021,0.395,0.033
			c0.376,0.034,0.752,0.069,1.128,0.104c0.116,0.762,0.232,1.524,0.348,2.287v-7.474H26.795z"/>
	</g>
	<g>
		<path fill="none" d="M30.265,21.804c-0.076-0.172-0.156-0.344-0.243-0.51c-0.058-0.109-0.129-0.209-0.195-0.312
			c-0.113-0.176-0.242-0.335-0.389-0.475c-0.115-0.111-0.232-0.221-0.353-0.323c-0.214-0.183-0.445-0.331-0.692-0.442
			c-0.191-0.083-0.385-0.166-0.581-0.225c-0.407-0.123-0.82-0.16-1.236-0.127c-0.478,0.037-0.934,0.164-1.368,0.385
			c-0.354,0.181-0.673,0.42-0.96,0.711c-0.194,0.197-0.365,0.42-0.516,0.661c-0.084,0.134-0.163,0.272-0.227,0.419
			c-0.083,0.186-0.154,0.377-0.22,0.572c-0.041,0.122-0.072,0.251-0.094,0.381c-0.031,0.182-0.063,0.365-0.07,0.549
			c-0.024,0.637,0.058,1.256,0.312,1.838c0.07,0.159,0.15,0.313,0.23,0.468c0.108,0.209,0.239,0.399,0.394,0.566
			c0.116,0.128,0.235,0.253,0.356,0.372c0.161,0.158,0.339,0.285,0.524,0.402c0.213,0.136,0.436,0.244,0.667,0.331
			c0.305,0.114,0.616,0.183,0.935,0.21c0.297,0.024,0.591,0.01,0.803-0.023c0.394-0.065,0.698-0.158,0.989-0.294
			c0.357-0.164,0.683-0.387,0.979-0.664c0.186-0.173,0.36-0.364,0.505-0.582c0.134-0.2,0.257-0.412,0.365-0.633
			c0.089-0.181,0.152-0.378,0.217-0.573c0.042-0.126,0.072-0.26,0.094-0.393c0.029-0.187,0.055-0.374,0.064-0.562
			c0.009-0.161,0.002-0.325-0.01-0.487C30.512,22.615,30.438,22.195,30.265,21.804z"/>
	</g>
	<g>
		<path fill="#47AAB7" d="M32.451,20.888c-0.132-0.013-0.263-0.031-0.395-0.033c-0.075-0.001-0.106-0.049-0.136-0.109
			c-0.053-0.109-0.099-0.223-0.154-0.33c-0.068-0.131-0.141-0.26-0.217-0.385c-0.061-0.101-0.127-0.196-0.193-0.292
			c-0.034-0.05-0.075-0.095-0.11-0.145c-0.01-0.016-0.017-0.046-0.011-0.063c0.082-0.235,0.168-0.47,0.254-0.703
			c0.048-0.131,0.101-0.258,0.149-0.389c0.052-0.143,0.101-0.286,0.154-0.428c0.012-0.032,0.008-0.051-0.02-0.071
			c-0.216-0.164-0.432-0.327-0.647-0.493c-0.062-0.047-0.124-0.095-0.186-0.143c-0.155-0.119-0.309-0.242-0.464-0.361
			c-0.138-0.105-0.275-0.209-0.415-0.311c-0.011-0.008-0.034-0.008-0.044,0c-0.135,0.118-0.267,0.237-0.4,0.355
			c-0.206,0.184-0.412,0.365-0.619,0.549c-0.055,0.049-0.107,0.102-0.164,0.146c-0.018,0.016-0.048,0.021-0.07,0.016
			c-0.215-0.064-0.427-0.145-0.644-0.199c-0.219-0.055-0.441-0.086-0.663-0.126c-0.031-0.005-0.047-0.019-0.06-0.052
			c-0.039-0.107-0.081-0.213-0.122-0.318c-0.088-0.223-0.177-0.443-0.266-0.666c-0.071-0.177-0.143-0.355-0.214-0.532
			c-0.72,0.124-1.44,0.246-2.161,0.37c-0.01,0.148-0.017,0.298-0.029,0.447c-0.014,0.197-0.031,0.393-0.047,0.59
			c-0.019,0.208-0.034,0.418-0.053,0.627c-0.002,0.018-0.015,0.041-0.028,0.049c-0.231,0.137-0.465,0.266-0.693,0.407
			c-0.124,0.077-0.237,0.173-0.354,0.263c-0.04,0.029-0.077,0.064-0.117,0.096c-0.013,0.009-0.034,0.012-0.047,0.007
			c-0.16-0.065-0.317-0.131-0.476-0.196c-0.324-0.135-0.648-0.269-0.972-0.4c-0.012-0.006-0.032,0.003-0.044,0.012
			c-0.015,0.01-0.027,0.027-0.037,0.043c-0.107,0.158-0.213,0.318-0.321,0.479c-0.124,0.184-0.25,0.367-0.375,0.551
			c-0.126,0.186-0.251,0.371-0.378,0.557c-0.041,0.06-0.083,0.117-0.12,0.178c-0.008,0.016-0.006,0.05,0.003,0.062
			c0.11,0.146,0.222,0.291,0.334,0.435c0.039,0.049,0.08,0.095,0.119,0.145c0.148,0.188,0.298,0.378,0.447,0.567
			c0.01,0.014,0.026,0.021,0.038,0.035c0.079,0.084,0.085,0.148,0.029,0.256c-0.006,0.012-0.015,0.022-0.018,0.035
			c-0.051,0.205-0.107,0.409-0.152,0.617c-0.039,0.185-0.067,0.373-0.094,0.562c-0.012,0.084-0.054,0.119-0.117,0.147
			c-0.23,0.101-0.458,0.206-0.688,0.31c-0.232,0.105-0.464,0.213-0.696,0.318c0.116,0.762,0.232,1.523,0.348,2.285
			c0.376,0.033,0.752,0.067,1.128,0.102c0.129,0.012,0.259,0.029,0.389,0.032c0.076,0.002,0.111,0.047,0.142,0.112
			c0.056,0.119,0.106,0.24,0.167,0.355c0.068,0.132,0.143,0.259,0.218,0.384c0.058,0.095,0.122,0.186,0.185,0.275
			c0.033,0.047,0.071,0.088,0.103,0.135c0.01,0.016,0.017,0.047,0.01,0.063c-0.08,0.227-0.163,0.453-0.245,0.68
			c-0.024,0.063-0.05,0.125-0.073,0.188c-0.079,0.213-0.155,0.426-0.235,0.637c-0.016,0.042-0.01,0.064,0.024,0.091
			c0.205,0.156,0.409,0.315,0.613,0.474c0.111,0.086,0.223,0.17,0.334,0.256c0.174,0.132,0.347,0.266,0.521,0.397
			c0.084,0.064,0.17,0.126,0.256,0.19c0.089-0.077,0.176-0.153,0.263-0.231c0.252-0.226,0.503-0.451,0.754-0.677
			c0.063-0.057,0.127-0.112,0.192-0.164c0.016-0.014,0.043-0.02,0.062-0.014c0.213,0.065,0.424,0.145,0.639,0.199
			c0.221,0.056,0.444,0.089,0.668,0.129c0.032,0.006,0.05,0.015,0.064,0.051c0.041,0.11,0.085,0.22,0.13,0.329
			c0.081,0.197,0.164,0.396,0.246,0.592c0.082,0.196,0.165,0.396,0.247,0.592c0.713-0.122,1.427-0.244,2.14-0.366
			c0.009-0.129,0.018-0.257,0.026-0.386c0.02-0.236,0.038-0.472,0.058-0.707c0.016-0.182,0.032-0.363,0.045-0.546
			c0.002-0.039,0.016-0.056,0.045-0.07c0.355-0.179,0.695-0.387,1.013-0.64c0.031-0.024,0.067-0.044,0.091-0.076
			c0.053-0.068,0.109-0.044,0.169-0.019c0.196,0.083,0.392,0.166,0.588,0.247c0.261,0.108,0.521,0.215,0.782,0.321
			c0.014,0.005,0.033,0,0.046-0.01c0.016-0.012,0.027-0.029,0.04-0.047c0.109-0.165,0.219-0.329,0.329-0.493
			c0.123-0.183,0.247-0.365,0.372-0.547c0.124-0.183,0.248-0.365,0.372-0.547c0.05-0.073,0.102-0.145,0.152-0.218
			c-0.124-0.16-0.248-0.32-0.373-0.48c-0.116-0.147-0.233-0.294-0.351-0.439c-0.081-0.101-0.163-0.199-0.245-0.297
			c-0.072-0.086-0.079-0.146-0.024-0.247c0.007-0.012,0.014-0.024,0.018-0.037c0.052-0.207,0.108-0.412,0.154-0.622
			c0.036-0.168,0.059-0.341,0.089-0.513c0.007-0.041,0.014-0.083,0.024-0.122c0.006-0.018,0.024-0.034,0.041-0.041
			c0.259-0.121,0.519-0.24,0.779-0.359c0.216-0.099,0.432-0.197,0.646-0.296c-0.115-0.763-0.231-1.525-0.348-2.287
			C33.203,20.958,32.827,20.922,32.451,20.888z M30.49,24.093c-0.021,0.133-0.052,0.267-0.094,0.393
			c-0.064,0.195-0.128,0.393-0.217,0.573c-0.108,0.221-0.231,0.433-0.365,0.633c-0.145,0.218-0.319,0.409-0.505,0.582
			c-0.296,0.277-0.621,0.5-0.979,0.664c-0.291,0.136-0.595,0.229-0.989,0.294c-0.212,0.033-0.506,0.048-0.803,0.023
			c-0.319-0.027-0.63-0.096-0.935-0.21c-0.231-0.087-0.454-0.195-0.667-0.331c-0.185-0.117-0.363-0.244-0.524-0.402
			c-0.121-0.119-0.24-0.244-0.356-0.372c-0.155-0.167-0.286-0.357-0.394-0.566c-0.08-0.154-0.16-0.309-0.23-0.468
			c-0.254-0.582-0.336-1.201-0.312-1.838c0.007-0.184,0.039-0.367,0.07-0.549c0.022-0.13,0.053-0.259,0.094-0.381
			c0.066-0.195,0.137-0.387,0.22-0.572c0.064-0.146,0.143-0.285,0.227-0.419c0.151-0.241,0.322-0.464,0.516-0.661
			c0.288-0.291,0.607-0.53,0.96-0.711c0.434-0.221,0.89-0.348,1.368-0.385c0.417-0.033,0.83,0.004,1.236,0.127
			c0.196,0.059,0.39,0.142,0.581,0.225c0.247,0.111,0.479,0.26,0.692,0.442c0.12,0.103,0.237,0.212,0.353,0.323
			c0.146,0.14,0.275,0.299,0.389,0.475c0.066,0.104,0.138,0.203,0.195,0.312c0.087,0.166,0.167,0.338,0.243,0.51
			c0.173,0.391,0.247,0.811,0.279,1.239c0.012,0.162,0.019,0.326,0.01,0.487C30.544,23.719,30.519,23.907,30.49,24.093z"/>
	</g>
</g>
<g>
	<g>
		<path fill="#76716D" d="M58.824,34.896c-0.081-0.041-0.172-0.096-0.274-0.168c-0.102-0.07-0.213-0.177-0.335-0.319
			c-1.3-1.503-2.534-2.931-3.702-4.281s-2.382-2.716-3.641-4.099c-0.528-0.588-0.889-0.954-1.081-1.097
			c-0.193-0.142-0.361-0.213-0.503-0.213c-0.163,0-0.27,0.035-0.32,0.106c-0.051,0.072-0.106,0.188-0.167,0.351
			c0,1.057,0,2.062,0,3.017c0,0.935,0.009,1.736,0.029,2.407c0.021,0.589,0.062,1.138,0.123,1.645
			c0.061,0.509,0.192,0.895,0.396,1.158c0.142,0.203,0.335,0.376,0.579,0.519c0.244,0.142,0.508,0.258,0.792,0.35
			s0.563,0.163,0.838,0.214s0.513,0.087,0.716,0.106v0.305h-9.78v-0.305c0.508-0.081,0.995-0.203,1.463-0.366
			c0.467-0.162,0.822-0.386,1.066-0.67c0.102-0.122,0.183-0.305,0.243-0.549c0.062-0.243,0.107-0.522,0.138-0.837
			c0.03-0.315,0.05-0.65,0.061-1.006c0.01-0.355,0.016-0.695,0.016-1.021c0-0.284,0.005-0.671,0.015-1.158
			c0.011-0.488,0.016-1.016,0.016-1.585c0-0.588,0-1.188,0-1.797c0-0.629,0-1.219,0-1.768v-5.941c0-0.771-0.025-1.482-0.076-2.133
			s-0.188-1.117-0.411-1.401c-0.285-0.345-0.631-0.599-1.036-0.761c-0.406-0.163-0.874-0.274-1.401-0.335v-0.305h9.445v0.305
			c-0.387,0.041-0.762,0.096-1.128,0.167c-0.365,0.071-0.69,0.224-0.975,0.457c-0.285,0.233-0.523,0.584-0.717,1.051
			c-0.192,0.467-0.299,1.127-0.319,1.98c-0.021,0.468-0.036,0.904-0.046,1.311c-0.011,0.406-0.016,0.873-0.016,1.401
			s0,1.167,0,1.919c0,0.732,0,1.666,0,2.803c0.366-0.223,0.858-0.604,1.479-1.142c0.619-0.538,1.269-1.144,1.95-1.813
			c0.68-0.67,1.355-1.359,2.025-2.072c0.671-0.71,1.25-1.33,1.737-1.857c0.345-0.406,0.655-0.823,0.93-1.25
			c0.273-0.426,0.411-0.812,0.411-1.158c0-0.588-0.204-1.015-0.61-1.279c-0.405-0.264-0.873-0.437-1.4-0.518v-0.305h8.166v0.305
			c-1.037,0.102-2.083,0.538-3.138,1.311c-1.057,0.771-2.133,1.666-3.229,2.68c-0.427,0.387-0.864,0.804-1.311,1.25
			c-0.447,0.447-0.889,0.895-1.326,1.341c-0.437,0.446-0.863,0.879-1.279,1.294c-0.416,0.418-0.797,0.809-1.143,1.174
			c0.162,0.203,0.538,0.646,1.128,1.325c0.589,0.682,1.289,1.478,2.102,2.392c0.812,0.915,1.681,1.89,2.605,2.926
			c0.924,1.036,1.812,2.031,2.666,2.985c0.202,0.244,0.437,0.487,0.701,0.732c0.263,0.242,0.518,0.462,0.762,0.654
			c0.243,0.193,0.457,0.361,0.639,0.503c0.184,0.142,0.306,0.224,0.367,0.243c0.264,0.103,0.623,0.204,1.082,0.305
			c0.455,0.102,0.969,0.174,1.537,0.214v0.305H58.824z"/>
	</g>
	<g>
		<path fill="#76716D" d="M87.845,13.842c-0.436,0.284-0.775,0.722-1.02,1.31c-0.062,0.143-0.117,0.376-0.168,0.701
			c-0.051,0.324-0.096,0.701-0.137,1.127c-0.041,0.427-0.072,0.879-0.092,1.356c-0.021,0.478-0.031,0.949-0.031,1.417
			c-0.02,0.873-0.045,1.848-0.076,2.924c-0.029,1.078-0.066,2.297-0.105,3.657c-0.021,0.386-0.047,0.873-0.076,1.462
			c-0.031,0.59-0.127,1.214-0.291,1.874c-0.162,0.66-0.42,1.32-0.775,1.98c-0.355,0.661-0.859,1.26-1.508,1.798
			c-0.65,0.538-1.484,0.965-2.5,1.279c-1.016,0.315-2.264,0.473-3.748,0.473c-1.461,0-2.695-0.153-3.701-0.457
			c-1.006-0.305-1.834-0.716-2.482-1.234c-0.65-0.518-1.154-1.086-1.51-1.706c-0.355-0.619-0.619-1.229-0.791-1.828
			c-0.174-0.599-0.273-1.147-0.305-1.646c-0.031-0.497-0.047-0.868-0.047-1.111c0-0.568,0.006-1.311,0.016-2.225
			s0.016-1.93,0.016-3.047v-4.053c0-0.365,0-0.73,0-1.097s-0.016-0.706-0.045-1.021c-0.031-0.314-0.076-0.6-0.137-0.854
			c-0.062-0.254-0.152-0.451-0.275-0.594c-0.285-0.346-0.635-0.594-1.051-0.747c-0.416-0.152-0.889-0.258-1.418-0.319v-0.305h9.08
			v0.305c-0.283,0.041-0.588,0.102-0.912,0.182c-0.326,0.082-0.621,0.209-0.885,0.381c-0.264,0.173-0.488,0.412-0.67,0.716
			c-0.184,0.305-0.285,0.691-0.305,1.158c-0.021,0.528-0.035,0.996-0.047,1.402c-0.01,0.406-0.014,0.803-0.014,1.188
			c0,0.386,0,0.792,0,1.219c0,0.406,0,0.884,0,1.432c0,0.691,0,1.311,0,1.858c0,0.549,0,1.066,0,1.554
			c0,0.468,0.004,0.92,0.014,1.356c0.012,0.437,0.016,0.899,0.016,1.387c0.02,1.077,0.184,2.056,0.488,2.939
			c0.305,0.885,0.73,1.636,1.279,2.255c0.549,0.62,1.219,1.098,2.01,1.433c0.793,0.334,1.697,0.502,2.713,0.502
			c1.158,0,2.137-0.132,2.939-0.396c0.803-0.265,1.473-0.629,2.012-1.097c0.537-0.468,0.965-1.006,1.279-1.615
			s0.549-1.259,0.701-1.95c0.152-0.69,0.254-1.396,0.305-2.117c0.051-0.721,0.076-1.427,0.076-2.118c0-0.548,0-1.046,0-1.492
			s0-0.864,0-1.249c0-0.406,0-0.803,0-1.188c0-0.406,0-0.823,0-1.249c0-0.406-0.006-0.823-0.016-1.25
			c-0.01-0.426-0.025-0.832-0.045-1.219c-0.021-0.386-0.051-0.746-0.092-1.082c-0.041-0.335-0.102-0.604-0.184-0.807
			c-0.203-0.568-0.553-1.031-1.051-1.387c-0.498-0.355-1.234-0.604-2.209-0.746v-0.305h7.557v0.305
			C88.876,13.365,88.282,13.558,87.845,13.842z"/>
	</g>
	<g>
		<path fill="#76716D" d="M106.478,34.896v-0.305c0.75-0.061,1.381-0.198,1.889-0.412c0.508-0.213,0.842-0.451,1.006-0.716
			c0.039-0.061,0.076-0.183,0.105-0.365c0.031-0.184,0.057-0.396,0.076-0.64c0.021-0.244,0.035-0.498,0.047-0.762
			c0.01-0.264,0.014-0.519,0.014-0.762c0.021-0.67,0.031-1.361,0.031-2.072c0-0.73,0-1.411,0-2.041c0-0.65,0-1.219,0-1.707
			c0-0.507,0-0.863,0-1.065H97.61V30.6c0,0.589,0.01,1.157,0.031,1.706c0.02,0.548,0.111,0.935,0.273,1.157
			c0.244,0.347,0.59,0.609,1.035,0.793c0.447,0.183,0.885,0.295,1.311,0.335v0.305h-8.988v-0.305
			c0.508-0.081,0.996-0.219,1.463-0.412c0.467-0.192,0.824-0.431,1.066-0.716c0.08-0.101,0.146-0.269,0.199-0.502
			c0.049-0.233,0.09-0.503,0.121-0.809c0.031-0.304,0.055-0.634,0.076-0.989c0.02-0.355,0.029-0.695,0.029-1.021
			c0-0.284,0.006-0.671,0.016-1.158c0.01-0.488,0.02-1.021,0.031-1.6c0.01-0.579,0.016-1.173,0.016-1.782c0-0.629,0-1.219,0-1.768
			v-5.941c0-0.365,0-0.73,0-1.097s-0.016-0.706-0.047-1.021c-0.029-0.314-0.076-0.6-0.137-0.854s-0.152-0.451-0.273-0.594
			c-0.285-0.346-0.635-0.594-1.053-0.747c-0.416-0.152-0.887-0.258-1.416-0.319v-0.305h9.08v0.305
			c-0.285,0.041-0.59,0.102-0.914,0.182c-0.326,0.082-0.619,0.209-0.885,0.381c-0.264,0.173-0.486,0.412-0.67,0.716
			c-0.182,0.305-0.283,0.691-0.305,1.158c-0.02,0.711-0.035,1.478-0.045,2.3c-0.01,0.823-0.016,1.61-0.016,2.362
			c0,0.73,0,1.381,0,1.949c0,0.549,0,0.925,0,1.128h12.035c0-0.649,0-1.239,0-1.768c0-0.548,0-1.076,0-1.585
			c0-0.507,0-1.025,0-1.553c0-0.528-0.01-1.128-0.031-1.798c-0.02-0.387-0.045-0.787-0.076-1.204
			c-0.029-0.416-0.127-0.756-0.289-1.021c-0.365-0.549-0.781-0.889-1.25-1.02c-0.467-0.133-0.934-0.208-1.4-0.229v-0.305h9.172
			v0.305c-0.488,0.061-0.965,0.198-1.434,0.411c-0.467,0.213-0.811,0.523-1.035,0.93c-0.082,0.142-0.143,0.341-0.184,0.594
			c-0.039,0.255-0.07,0.538-0.09,0.854c-0.021,0.315-0.031,0.635-0.031,0.96c0,0.324,0,0.639,0,0.944v5.21c0,0.751,0,1.433,0,2.041
			c0,0.59,0,1.179,0,1.768c0,0.568,0.006,1.158,0.016,1.768c0.01,0.608,0.016,1.279,0.016,2.011c0,0.589,0.016,1.133,0.045,1.63
			c0.031,0.498,0.107,0.838,0.229,1.021c0.264,0.407,0.619,0.69,1.066,0.854c0.447,0.162,0.934,0.274,1.463,0.335v0.305H106.478z"/>
	</g>
	<g>
		<path fill="#76716D" d="M141.317,13.842c-0.457,0.284-0.807,0.722-1.051,1.31c-0.143,0.305-0.234,0.869-0.275,1.691
			c-0.039,0.822-0.08,1.701-0.121,2.636c-0.041,0.874-0.076,1.904-0.107,3.093c-0.029,1.188-0.045,2.463-0.045,3.823
			c0,0.569,0,1.219,0,1.95c0,0.711,0.004,1.437,0.016,2.178c0.01,0.742,0.016,1.479,0.016,2.21c0,0.73,0,1.392,0,1.98
			c0,0.08-0.027,0.147-0.076,0.198c-0.051,0.05-0.127,0.075-0.229,0.075c-0.164,0-0.346-0.101-0.549-0.304
			c-1.727-1.991-3.301-3.819-4.723-5.485c-1.422-1.665-2.779-3.255-4.068-4.768c-1.289-1.514-2.555-2.991-3.793-4.435
			c-1.238-1.441-2.549-2.934-3.93-4.479v12.858c0,1.036,0.025,1.971,0.076,2.803c0.051,0.834,0.178,1.453,0.379,1.859
			c0.225,0.467,0.574,0.817,1.053,1.051c0.477,0.234,1.131,0.401,1.965,0.503v0.305h-7.496v-0.305
			c0.488-0.061,0.977-0.188,1.463-0.381c0.488-0.193,0.873-0.513,1.158-0.96c0.285-0.427,0.467-1.056,0.549-1.889
			c0.08-0.833,0.143-1.829,0.184-2.986c0.039-0.873,0.07-1.904,0.09-3.093c0.02-1.188,0.031-2.462,0.031-3.824
			c0-0.588,0-1.076,0-1.463c0-0.385,0-0.761,0-1.126c0-0.366,0-0.741,0-1.128c0-0.406-0.012-0.903-0.031-1.492
			c-0.061-0.59-0.203-1.072-0.426-1.447c-0.225-0.376-0.488-0.671-0.793-0.884c-0.305-0.213-0.635-0.366-0.99-0.457
			c-0.355-0.092-0.695-0.157-1.02-0.198v-0.305h6.184l14.443,16.88V19.479c0-0.813-0.01-1.59-0.031-2.331
			c-0.02-0.742-0.111-1.325-0.273-1.752c-0.203-0.568-0.564-1.031-1.082-1.387c-0.518-0.355-1.264-0.604-2.238-0.746v-0.305h7.555
			v0.305C142.38,13.365,141.774,13.558,141.317,13.842z"/>
	</g>
</g>
<g>
	<path fill="#47AAB7" d="M46.871,5.22c0.259,0.529,0.507,1.047,0.776,1.543h0.022c0.305-0.529,0.586-1.115,0.867-1.689l1.059-2.15
		c0.507-1.025,0.834-1.645,0.856-2.162c0.383,0.034,0.619,0.034,0.844,0.034c0.282,0,0.653-0.011,1.003-0.034
		c0.067,0.045,0.067,0.236,0.011,0.281l-0.236,0.022c-0.709,0.068-0.8,0.282-0.788,1.07c0.022,1.194,0.033,3.277,0.124,4.898
		c0.033,0.563,0.022,0.867,0.552,0.912l0.36,0.034c0.067,0.067,0.056,0.236-0.022,0.281c-0.462-0.022-0.924-0.034-1.329-0.034
		c-0.395,0-0.9,0.011-1.362,0.034c-0.079-0.056-0.09-0.214-0.022-0.281l0.326-0.034c0.552-0.056,0.552-0.236,0.552-0.957
		l-0.033-4.696h-0.023c-0.078,0.124-0.506,1.025-0.731,1.464l-1.002,1.971c-0.507,0.991-1.014,2.05-1.217,2.567
		c-0.022,0.034-0.067,0.045-0.112,0.045c-0.022,0-0.079-0.011-0.102-0.045c-0.191-0.597-0.731-1.7-0.991-2.252l-1.013-2.173
		C45,3.351,44.764,2.766,44.517,2.248h-0.022c-0.046,0.698-0.079,1.351-0.113,2.004c-0.033,0.687-0.078,1.689-0.078,2.646
		c0,0.833,0.067,1.013,0.506,1.047l0.429,0.034c0.078,0.067,0.067,0.248-0.012,0.281c-0.383-0.022-0.822-0.034-1.25-0.034
		c-0.36,0-0.766,0.011-1.148,0.034c-0.067-0.056-0.09-0.225-0.022-0.281l0.248-0.034c0.473-0.067,0.63-0.135,0.698-0.923
		c0.067-0.743,0.123-1.362,0.191-2.477c0.056-0.935,0.101-1.892,0.123-2.511c0.022-0.709-0.067-0.878-0.754-0.969l-0.181-0.022
		c-0.056-0.067-0.045-0.236,0.045-0.281c0.338,0.022,0.608,0.034,0.89,0.034c0.26,0,0.563,0,0.935-0.034
		c-0.045,0.439,0.237,1.137,0.586,1.858L46.871,5.22z"/>
	<path fill="#47AAB7" d="M53.963,5.344c-0.293,0-0.304,0.022-0.304,0.304c0,1.137,0.664,2.105,1.869,2.105
		c0.371,0,0.687-0.112,1.036-0.552c0.112-0.034,0.191,0.034,0.202,0.135C56.396,8.103,55.585,8.385,55,8.385
		c-0.732,0-1.307-0.315-1.633-0.743c-0.338-0.439-0.473-0.969-0.473-1.464c0-1.385,0.912-2.545,2.263-2.545
		c0.969,0,1.6,0.665,1.6,1.34c0,0.158-0.022,0.248-0.045,0.293c-0.034,0.067-0.191,0.079-0.665,0.079H53.963z M54.662,5.006
		c0.833,0,1.081-0.045,1.171-0.112C55.867,4.871,55.9,4.826,55.9,4.68c0-0.315-0.214-0.709-0.866-0.709
		c-0.665,0-1.239,0.608-1.25,0.98c0,0.022,0,0.056,0.078,0.056H54.662z"/>
	<path fill="#47AAB7" d="M58.986,4.263c-0.191,0-0.203,0.034-0.203,0.271v2.105c0,0.653,0.079,1.25,0.822,1.25
		c0.112,0,0.214-0.022,0.304-0.056c0.102-0.034,0.248-0.158,0.281-0.158c0.091,0,0.136,0.124,0.113,0.191
		c-0.203,0.236-0.608,0.518-1.183,0.518c-0.969,0-1.171-0.541-1.171-1.216V4.59c0-0.304-0.012-0.327-0.236-0.327h-0.315
		c-0.067-0.045-0.079-0.169-0.034-0.236c0.327-0.102,0.608-0.248,0.721-0.349c0.146-0.135,0.36-0.439,0.473-0.665
		c0.057-0.022,0.191-0.022,0.237,0.056v0.507c0,0.203,0.011,0.214,0.202,0.214h1.25c0.136,0.102,0.112,0.406,0.012,0.473H58.986z"/>
	<path fill="#47AAB7" d="M63.084,5.896c0.169-0.056,0.191-0.158,0.191-0.327l0.011-0.518c0.012-0.417-0.123-0.979-0.821-0.979
		c-0.315,0-0.698,0.158-0.721,0.507c-0.012,0.18-0.022,0.315-0.113,0.383c-0.169,0.135-0.473,0.214-0.642,0.214
		c-0.102,0-0.157-0.056-0.157-0.158c0-0.585,1.272-1.385,2.094-1.385c0.812,0,1.205,0.473,1.172,1.318L64.031,6.91
		c-0.023,0.518,0.078,0.979,0.518,0.979c0.112,0,0.214-0.034,0.281-0.067c0.057-0.034,0.113-0.079,0.146-0.079
		c0.045,0,0.079,0.068,0.079,0.146c0,0.056-0.395,0.496-0.946,0.496c-0.27,0-0.54-0.102-0.731-0.349
		c-0.045-0.067-0.113-0.158-0.181-0.158c-0.078,0-0.214,0.102-0.439,0.225c-0.247,0.135-0.495,0.282-0.811,0.282
		c-0.326,0-0.597-0.09-0.788-0.259c-0.214-0.191-0.349-0.473-0.349-0.788c0-0.439,0.214-0.698,0.935-0.957L63.084,5.896z
		 M62.386,7.878c0.226,0,0.574-0.169,0.687-0.282c0.136-0.135,0.136-0.292,0.146-0.529l0.022-0.665c0-0.124-0.045-0.146-0.112-0.146
		s-0.259,0.045-0.462,0.113c-0.664,0.225-0.99,0.394-0.99,0.833C61.677,7.394,61.812,7.878,62.386,7.878z"/>
	<path fill="#47AAB7" d="M66.789,6.966c0,0.811,0.022,0.923,0.428,0.979l0.271,0.034c0.079,0.056,0.057,0.248-0.022,0.281
		c-0.372-0.022-0.698-0.034-1.093-0.034c-0.405,0-0.743,0.011-1.081,0.034c-0.078-0.034-0.101-0.225-0.022-0.281l0.26-0.034
		c0.416-0.056,0.428-0.168,0.428-0.979v-5.09c0-0.665-0.012-0.732-0.35-0.935l-0.112-0.068c-0.057-0.034-0.057-0.191,0-0.225
		c0.281-0.09,0.811-0.259,1.216-0.473c0.045,0,0.091,0.022,0.113,0.068c-0.012,0.338-0.034,0.901-0.034,1.396V6.966z"/>
	<path fill="#47AAB7" d="M69.57,6.966c0,0.811,0.022,0.923,0.428,0.979l0.271,0.034c0.079,0.056,0.057,0.248-0.022,0.281
		c-0.372-0.022-0.698-0.034-1.093-0.034c-0.405,0-0.743,0.011-1.081,0.034c-0.078-0.034-0.101-0.225-0.022-0.281l0.26-0.034
		c0.416-0.056,0.428-0.168,0.428-0.979v-5.09c0-0.665-0.012-0.732-0.35-0.935l-0.112-0.068c-0.057-0.034-0.057-0.191,0-0.225
		c0.281-0.09,0.811-0.259,1.216-0.473c0.045,0,0.091,0.022,0.113,0.068c-0.012,0.338-0.034,0.901-0.034,1.396V6.966z"/>
	<path fill="#47AAB7" d="M72.554,4.263c-0.191,0-0.203,0.034-0.203,0.271v2.105c0,0.653,0.079,1.25,0.822,1.25
		c0.113,0,0.215-0.022,0.305-0.056c0.102-0.034,0.248-0.158,0.281-0.158c0.09,0,0.135,0.124,0.113,0.191
		c-0.203,0.236-0.609,0.518-1.184,0.518c-0.968,0-1.17-0.541-1.17-1.216V4.59c0-0.304-0.012-0.327-0.236-0.327h-0.315
		c-0.067-0.045-0.079-0.169-0.034-0.236c0.327-0.102,0.608-0.248,0.721-0.349c0.146-0.135,0.36-0.439,0.473-0.665
		c0.057-0.022,0.191-0.022,0.237,0.056v0.507c0,0.203,0.011,0.214,0.203,0.214h1.25c0.135,0.102,0.111,0.406,0.012,0.473H72.554z"/>
	<path fill="#47AAB7" d="M75.448,5.344c-0.293,0-0.305,0.022-0.305,0.304c0,1.137,0.664,2.105,1.869,2.105
		c0.371,0,0.688-0.112,1.037-0.552c0.111-0.034,0.191,0.034,0.201,0.135c-0.371,0.766-1.182,1.047-1.768,1.047
		c-0.732,0-1.307-0.315-1.633-0.743c-0.338-0.439-0.473-0.969-0.473-1.464c0-1.385,0.912-2.545,2.264-2.545
		c0.969,0,1.6,0.665,1.6,1.34c0,0.158-0.023,0.248-0.045,0.293c-0.035,0.067-0.191,0.079-0.666,0.079H75.448z M76.146,5.006
		c0.834,0,1.082-0.045,1.172-0.112c0.033-0.023,0.066-0.068,0.066-0.214c0-0.315-0.213-0.709-0.865-0.709
		c-0.666,0-1.24,0.608-1.25,0.98c0,0.022,0,0.056,0.078,0.056H76.146z"/>
	<path fill="#47AAB7" d="M82.575,3.824c0.09,0.079,0.17,0.259,0.17,0.45c0,0.203-0.113,0.417-0.248,0.417
		c-0.057,0-0.113-0.022-0.158-0.079c-0.248-0.304-0.664-0.597-1.125-0.597c-0.789,0-1.555,0.619-1.555,1.813
		c0,0.878,0.607,1.925,1.812,1.925c0.654,0,0.992-0.292,1.25-0.675c0.09-0.022,0.191,0.056,0.203,0.157
		c-0.383,0.833-1.227,1.149-1.881,1.149c-0.596,0-1.148-0.191-1.543-0.574s-0.652-0.935-0.652-1.667
		c0-1.216,0.855-2.511,2.725-2.511C81.833,3.632,82.272,3.689,82.575,3.824z"/>
	<path fill="#47AAB7" d="M83.938,1.876c0-0.665-0.012-0.732-0.35-0.935l-0.113-0.068c-0.057-0.034-0.057-0.191,0-0.225
		c0.281-0.09,0.811-0.259,1.217-0.473c0.045,0,0.09,0.022,0.113,0.068c-0.012,0.338-0.035,0.901-0.035,1.396v2.365
		c0,0.101,0.012,0.191,0.045,0.214c0.406-0.315,0.947-0.586,1.521-0.586c1.068,0,1.451,0.665,1.451,1.453v1.88
		c0,0.811,0.023,0.935,0.43,0.979l0.303,0.034c0.08,0.056,0.057,0.248-0.021,0.281c-0.406-0.022-0.732-0.034-1.127-0.034
		c-0.404,0-0.742,0.011-1.047,0.034c-0.078-0.034-0.102-0.225-0.023-0.281l0.227-0.034c0.416-0.067,0.428-0.168,0.428-0.979v-1.61
		c0-0.721-0.35-1.205-1.07-1.205c-0.383,0-0.676,0.135-0.879,0.304c-0.201,0.169-0.236,0.225-0.236,0.619v1.892
		c0,0.811,0.023,0.923,0.428,0.979l0.236,0.034c0.08,0.045,0.057,0.248-0.021,0.281c-0.338-0.022-0.664-0.034-1.059-0.034
		c-0.406,0-0.744,0.011-1.104,0.034c-0.078-0.034-0.102-0.225-0.023-0.281l0.283-0.034c0.416-0.045,0.428-0.168,0.428-0.979V1.876z"
		/>
	<path fill="#47AAB7" d="M89.849,4.995c0-0.439,0-0.496-0.303-0.698l-0.102-0.067c-0.045-0.045-0.045-0.169,0.01-0.203
		c0.26-0.09,0.902-0.383,1.127-0.552c0.045,0,0.102,0.022,0.123,0.079c-0.021,0.259-0.021,0.428-0.021,0.529
		c0,0.067,0.045,0.124,0.123,0.124c0.475-0.293,1.002-0.575,1.578-0.575c0.934,0,1.316,0.642,1.316,1.396v1.937
		c0,0.811,0.023,0.923,0.428,0.979l0.248,0.034c0.078,0.056,0.057,0.248-0.021,0.281c-0.338-0.022-0.666-0.034-1.059-0.034
		c-0.406,0-0.744,0.011-1.049,0.034c-0.078-0.034-0.102-0.225-0.021-0.281l0.213-0.034c0.418-0.067,0.428-0.168,0.428-0.979V5.288
		c0-0.642-0.291-1.115-1.059-1.115c-0.428,0-0.799,0.18-0.957,0.394c-0.146,0.191-0.168,0.349-0.168,0.675v1.723
		c0,0.811,0.021,0.912,0.428,0.979l0.203,0.034c0.078,0.056,0.057,0.248-0.023,0.281c-0.303-0.022-0.631-0.034-1.023-0.034
		c-0.406,0-0.744,0.011-1.059,0.034c-0.08-0.034-0.102-0.225-0.023-0.281l0.236-0.034c0.418-0.056,0.428-0.168,0.428-0.979V4.995z"
		/>
	<path fill="#47AAB7" d="M95.761,4.995c0-0.439,0-0.496-0.305-0.698l-0.102-0.067c-0.045-0.045-0.045-0.169,0.012-0.203
		c0.26-0.09,0.9-0.383,1.16-0.552c0.057,0,0.102,0.022,0.111,0.067c-0.021,0.394-0.045,0.935-0.045,1.396v2.027
		c0,0.811,0.023,0.923,0.43,0.979l0.236,0.034c0.078,0.056,0.055,0.248-0.023,0.281c-0.338-0.022-0.664-0.034-1.059-0.034
		c-0.404,0-0.742,0.011-1.059,0.034c-0.078-0.034-0.102-0.225-0.021-0.281l0.236-0.034c0.416-0.056,0.428-0.168,0.428-0.979V4.995z
		 M96.694,1.786c0,0.405-0.281,0.586-0.596,0.586c-0.35,0-0.574-0.259-0.574-0.563c0-0.372,0.27-0.608,0.607-0.608
		S96.694,1.47,96.694,1.786z"/>
	<path fill="#47AAB7" d="M98.542,1.876c0-0.665-0.012-0.732-0.35-0.935l-0.111-0.068c-0.057-0.034-0.057-0.191,0-0.225
		c0.281-0.09,0.811-0.259,1.215-0.473c0.045,0,0.092,0.022,0.113,0.068c-0.012,0.338-0.033,0.901-0.033,1.396v3.863
		c0,0.146,0.012,0.169,0.203,0.169c0.246,0,0.461-0.124,0.766-0.439l0.461-0.495c0.314-0.338,0.395-0.462,0.395-0.518
		c0-0.057-0.057-0.09-0.248-0.113l-0.27-0.034c-0.102-0.034-0.102-0.248,0-0.282h0.258c0.496,0,1.16-0.022,1.791-0.09
		c0.078,0.034,0.09,0.225,0.021,0.281l-0.359,0.068c-0.225,0.045-0.416,0.158-0.709,0.394c-0.439,0.349-0.822,0.754-1.025,0.946
		c-0.135,0.124-0.146,0.18-0.078,0.271c0.191,0.259,0.371,0.473,0.754,0.901c0.439,0.496,0.834,0.935,1.059,1.148
		c0.158,0.146,0.383,0.214,0.586,0.248l0.156,0.023c0.08,0.056,0.068,0.248-0.021,0.281c-0.326-0.022-0.709-0.034-1.07-0.034
		c-0.449,0-0.844,0.011-1.17,0.034c-0.092-0.045-0.102-0.236-0.023-0.281l0.203-0.034c0.168-0.022,0.281-0.045,0.281-0.112
		c0-0.068-0.045-0.146-0.191-0.315l-1.205-1.396c-0.102-0.112-0.225-0.158-0.35-0.158c-0.201,0-0.213,0.034-0.213,0.383v0.619
		c0,0.811,0.021,0.923,0.428,0.979l0.27,0.034c0.08,0.056,0.057,0.248-0.021,0.281c-0.373-0.022-0.699-0.034-1.094-0.034
		c-0.404,0-0.742,0.011-1.08,0.034c-0.078-0.034-0.102-0.225-0.012-0.281l0.248-0.034c0.416-0.056,0.428-0.168,0.428-0.979V1.876z"
		/>
</g>
</svg>
