<?xml version="1.0" encoding="utf-8"?>
<!-- Generator: Adobe Illustrator 23.1.1, SVG Export Plug-In . SVG Version: 6.00 Build 0)  -->
<svg version="1.1" xmlns="http://www.w3.org/2000/svg" xmlns:xlink="http://www.w3.org/1999/xlink" x="0px" y="0px"
	 viewBox="0 0 563.109 351.395" enable-background="new 0 0 563.109 351.395" xml:space="preserve">
<g id="cl_x5F_1001">
	<g id="gerade">
		<rect id="stab_37_" x="305.837" y="48.728" fill="#514F51" width="4.367" height="287.93"/>
		<rect id="stab_36_" x="80.837" y="49.043" fill="#514F51" width="4.367" height="287.727"/>
		<rect id="stab_35_" x="130.837" y="48.728" fill="#514F51" width="4.367" height="288.042"/>
		<rect id="stab_34_" x="180.837" y="49.043" fill="#514F51" width="4.367" height="287.727"/>
		<rect id="stab_33_" x="230.837" y="49.043" fill="#514F51" width="4.367" height="287.727"/>
		<rect id="stab_32_" x="330.837" y="49.043" fill="#514F51" width="4.367" height="287.727"/>
		<rect id="stab_31_" x="355.837" y="48.728" fill="#514F51" width="4.367" height="288.042"/>
		<rect id="stab_30_" x="380.837" y="48.728" fill="#514F51" width="4.367" height="288.042"/>
		<rect id="stab_29_" x="405.837" y="48.728" fill="#514F51" width="4.367" height="288.042"/>
		<rect id="stab_28_" x="430.837" y="49.043" fill="#514F51" width="4.367" height="287.727"/>
		<rect id="stab_27_" x="455.837" y="48.728" fill="#514F51" width="4.367" height="288.042"/>
		<rect id="stab_26_" x="480.837" y="48.728" fill="#514F51" width="4.367" height="288.042"/>
		<rect id="stab_25_" x="505.837" y="48.728" fill="#514F51" width="4.367" height="288.042"/>
		<rect id="stab_24_" x="106.837" y="48.728" fill="#514F51" width="4.367" height="288.042"/>
		<rect id="stab_23_" x="55.837" y="49.043" fill="#514F51" width="4.367" height="287.727"/>
		<rect id="stab_22_" x="155.837" y="48.728" fill="#514F51" width="4.367" height="288.042"/>
		<rect id="stab_21_" x="205.837" y="49.043" fill="#514F51" width="4.367" height="287.727"/>
		<rect id="stab_20_" x="255.837" y="48.728" fill="#514F51" width="4.367" height="288.042"/>
		<rect id="stab_19_" x="280.837" y="48.728" fill="#514F51" width="4.367" height="288.042"/>
	</g>
	<g id="convex" display="none">
		<rect id="stab" x="305.837" y="15.395" display="inline" fill="#514F51" width="4.367" height="321.264"/>
		<rect id="stab_18_" x="80.837" y="39.895" display="inline" fill="#514F51" width="4.367" height="296.875"/>
		<rect id="stab_17_" x="130.837" y="28.395" display="inline" fill="#514F51" width="4.367" height="308.375"/>
		<rect id="stab_16_" x="180.837" y="21.895" display="inline" fill="#514F51" width="4.367" height="314.875"/>
		<rect id="stab_15_" x="230.837" y="17.397" display="inline" fill="#514F51" width="4.367" height="319.373"/>
		<rect id="stab_14_" x="330.837" y="17.397" display="inline" fill="#514F51" width="4.367" height="319.373"/>
		<rect id="stab_13_" x="355.837" y="19.123" display="inline" fill="#514F51" width="4.367" height="317.646"/>
		<rect id="stab_12_" x="380.837" y="21.895" display="inline" fill="#514F51" width="4.367" height="314.875"/>
		<rect id="stab_11_" x="405.837" y="25.395" display="inline" fill="#514F51" width="4.367" height="311.375"/>
		<rect id="stab_10_" x="430.837" y="28.395" display="inline" fill="#514F51" width="4.367" height="308.375"/>
		<rect id="stab_9_" x="455.837" y="34.08" display="inline" fill="#514F51" width="4.367" height="302.69"/>
		<rect id="stab_8_" x="480.837" y="39.895" display="inline" fill="#514F51" width="4.367" height="296.875"/>
		<rect id="stab_7_" x="505.837" y="48.728" display="inline" fill="#514F51" width="4.367" height="288.042"/>
		<rect id="stab_6_" x="106.837" y="34.411" display="inline" fill="#514F51" width="4.367" height="302.359"/>
		<rect id="stab_5_" x="55.837" y="49.043" display="inline" fill="#514F51" width="4.367" height="287.727"/>
		<rect id="stab_4_" x="155.837" y="25.395" display="inline" fill="#514F51" width="4.367" height="311.375"/>
		<rect id="stab_3_" x="205.837" y="19.123" display="inline" fill="#514F51" width="4.367" height="317.646"/>
		<rect id="stab_2_" x="255.837" y="15.395" display="inline" fill="#514F51" width="4.367" height="321.375"/>
		<rect id="stab_1_" x="280.837" y="15.395" display="inline" fill="#514F51" width="4.367" height="321.375"/>
	</g>
	<g id="latten">
		<rect id="latte_x5F_oben" x="30.5" y="75.463" fill="#514F51" width="500.5" height="8.469"/>
		<rect id="latte_x5F_unten" x="30.5" y="301.463" fill="#514F51" width="500.5" height="8.469"/>
		<ellipse display="none" opacity="0.3" fill="#514F51" cx="284.555" cy="149.395" rx="358.5" ry="132"/>
	</g>
</g>
<g id="cl_x5F_1111" display="none">
	<rect x="30.872" y="63.463" display="inline" fill="#514F51" width="500.5" height="8.469"/>
	<rect x="30.872" y="316.463" display="inline" fill="#514F51" width="500.5" height="8.469"/>
	<rect x="81.209" y="107.941" display="inline" fill="#514F51" width="4.367" height="210.06"/>
	<rect x="131.208" y="67.697" display="inline" fill="#514F51" width="4.367" height="253.001"/>
	<rect x="181.208" y="107.941" display="inline" fill="#514F51" width="4.367" height="210.06"/>
	<rect x="231.208" y="65.395" display="inline" fill="#514F51" width="4.367" height="255.303"/>
	<rect x="331.208" y="65.395" display="inline" fill="#514F51" width="4.367" height="255.303"/>
	<rect x="356.208" y="107.602" display="inline" fill="#514F51" width="4.367" height="210.398"/>
	<rect x="381.208" y="107.941" display="inline" fill="#514F51" width="4.367" height="212.757"/>
	<rect x="406.208" y="107.602" display="inline" fill="#514F51" width="4.367" height="213.095"/>
	<rect x="431.208" y="65.395" display="inline" fill="#514F51" width="4.367" height="255.303"/>
	<rect x="456.208" y="107.602" display="inline" fill="#514F51" width="4.367" height="213.095"/>
	<rect x="481.208" y="105.395" display="inline" fill="#514F51" width="4.367" height="215.303"/>
	<rect x="506.208" y="107.602" display="inline" fill="#514F51" width="4.367" height="213.095"/>
	<rect x="107.208" y="106.987" display="inline" fill="#514F51" width="4.367" height="211.014"/>
	<rect x="56.208" y="106.987" display="inline" fill="#514F51" width="4.367" height="211.014"/>
	<rect x="156.208" y="106.987" display="inline" fill="#514F51" width="4.367" height="213.711"/>
	<rect x="206.208" y="106.987" display="inline" fill="#514F51" width="4.367" height="211.014"/>
	<rect x="256.208" y="129.57" display="inline" fill="#514F51" width="4.367" height="191.128"/>
	<rect x="281.208" y="69.728" display="inline" fill="#514F51" width="4.367" height="250.97"/>
	<rect x="306.208" y="129.57" display="inline" fill="#514F51" width="4.367" height="191.128"/>
	<rect x="30.872" y="105.487" display="inline" fill="#514F51" width="201.74" height="4.908"/>
	<rect x="332.872" y="105.487" display="inline" fill="#514F51" width="201.74" height="4.908"/>
	<polygon display="inline" fill="#514F51" points="285.515,150.809 283.122,153.653 232.612,108.331 235.004,105.487 	"/>
	<polygon display="inline" fill="#514F51" points="334.515,108.33 332.122,105.487 281.612,150.808 284.005,153.653 	"/>
	
		<rect x="266.999" y="91.427" transform="matrix(0.7223 -0.6916 0.6916 0.7223 4.2277 225.7335)" display="inline" fill="#FFFFFF" stroke="#514F51" stroke-width="4" stroke-miterlimit="10" width="32.355" height="32.352"/>
	
		<rect x="72.167" y="77.438" transform="matrix(0.7223 -0.6916 0.6916 0.7223 -38.1601 82.3014)" display="inline" fill="none" stroke="#514F51" stroke-width="4" stroke-miterlimit="10" width="22.452" height="22.451"/>
	
		<rect x="171.983" y="77.438" transform="matrix(0.7223 -0.6916 0.6916 0.7223 -10.4392 151.3303)" display="inline" fill="none" stroke="#514F51" stroke-width="4" stroke-miterlimit="10" width="22.452" height="22.451"/>
	
		<rect x="371.983" y="77.438" transform="matrix(0.7223 -0.6916 0.6916 0.7223 45.1077 289.6557)" display="inline" fill="none" stroke="#514F51" stroke-width="4" stroke-miterlimit="10" width="22.452" height="22.451"/>
	
		<rect x="471.983" y="77.438" transform="matrix(0.7223 -0.6916 0.6916 0.7223 72.8805 358.8166)" display="inline" fill="none" stroke="#514F51" stroke-width="4" stroke-miterlimit="10" width="22.452" height="22.451"/>
</g>
<g id="kugel" display="none">
	<circle display="inline" fill="#514F51" cx="20.021" cy="14.395" r="12"/>
	<circle display="inline" fill="#514F51" cx="540.021" cy="14.395" r="12"/>
</g>
<g id="spitze" display="none">
	<polygon display="inline" fill="#514F51" points="31,30.317 26.794,28.565 20,25.735 13.206,28.565 8.982,30.325 8.982,31.395 
		20,31.395 31,31.395 	"/>
	<polygon display="inline" fill="#514F51" points="551,30.317 546.794,28.565 540,25.735 533.206,28.565 528.982,30.325 
		528.982,31.395 540,31.395 551,31.395 	"/>
</g>
<g id="mauer">
	<rect id="Mauer_x5F_links" y="30.395" fill="#D5D7DD" width="31" height="321"/>
	<rect id="Mauer_x5F_rechts" x="530" y="30.395" fill="#D5D7DD" width="33.109" height="321"/>
</g>
<g id="pfosten" display="none">
	<rect id="Pfosten_x5F_links" x="8.982" y="30.395" display="inline" fill="#514F51" width="22.018" height="321"/>
	<rect id="Pfosten_x5F_rechts" x="528.982" y="30.395" display="inline" fill="#514F51" width="22.018" height="321"/>
	<polygon display="inline" fill="#4E4D4D" points="31.384,29.073 26.057,25.54 13.99,25.54 8.662,29.073 8.122,29.431 8.122,29.541 
		8.122,31.395 31.861,31.395 31.861,29.541 31.861,29.389 	"/>
	<polygon display="inline" fill="#4E4D4D" points="551.384,29.073 546.057,25.54 533.99,25.54 528.662,29.073 528.122,29.431 
		528.122,29.541 528.122,31.395 551.861,31.395 551.861,29.541 551.861,29.389 	"/>
</g>
</svg>
