<?xml version="1.0" encoding="utf-8"?>
<!-- Generator: Adobe Illustrator 23.1.1, SVG Export Plug-In . SVG Version: 6.00 Build 0)  -->
<svg version="1.1" xmlns="http://www.w3.org/2000/svg" xmlns:xlink="http://www.w3.org/1999/xlink" x="0px" y="0px"
	 viewBox="0 0 563.109 333.453" enable-background="new 0 0 563.109 333.453" xml:space="preserve">
<g id="lu_x5F_1201" display="none">
	<rect x="31.305" y="72.278" display="inline" fill="#514F51" width="500.5" height="8.469"/>
	<rect x="31.305" y="112.278" display="inline" fill="#514F51" width="500.5" height="8.469"/>
	<rect x="31.305" y="298.279" display="inline" fill="#514F51" width="500.5" height="8.469"/>
	<rect x="81.642" y="45.543" display="inline" fill="#514F51" width="4.367" height="288.042"/>
	<rect x="131.642" y="45.543" display="inline" fill="#514F51" width="4.367" height="288.042"/>
	<rect x="181.642" y="45.543" display="inline" fill="#514F51" width="4.367" height="288.042"/>
	<rect x="231.642" y="45.543" display="inline" fill="#514F51" width="4.367" height="288.042"/>
	<rect x="331.642" y="45.543" display="inline" fill="#514F51" width="4.367" height="288.042"/>
	<rect x="356.642" y="45.545" display="inline" fill="#514F51" width="4.367" height="288.129"/>
	<rect x="381.642" y="45.545" display="inline" fill="#514F51" width="4.367" height="288.129"/>
	<rect x="406.642" y="45.543" display="inline" fill="#514F51" width="4.367" height="288.042"/>
	<rect x="431.642" y="45.543" display="inline" fill="#514F51" width="4.367" height="288.042"/>
	<rect x="456.642" y="45.543" display="inline" fill="#514F51" width="4.367" height="288.042"/>
	<rect x="481.642" y="45.545" display="inline" fill="#514F51" width="4.367" height="288.129"/>
	<rect x="506.642" y="45.543" display="inline" fill="#514F51" width="4.367" height="288.042"/>
	<rect x="107.642" y="45.543" display="inline" fill="#514F51" width="4.367" height="288.042"/>
	<rect x="56.642" y="45.543" display="inline" fill="#514F51" width="4.367" height="288.042"/>
	<rect x="156.642" y="45.543" display="inline" fill="#514F51" width="4.367" height="288.042"/>
	<rect x="206.642" y="45.543" display="inline" fill="#514F51" width="4.367" height="288.042"/>
	<rect x="256.642" y="45.543" display="inline" fill="#514F51" width="4.367" height="288.042"/>
	<rect x="281.642" y="45.545" display="inline" fill="#514F51" width="4.367" height="288.129"/>
	<rect x="306.642" y="45.543" display="inline" fill="#514F51" width="4.367" height="288.042"/>
	<polygon display="inline" fill="#514F51" points="58.825,28.322 62.085,37.17 65.346,46.018 58.825,53.582 52.304,46.018 
		55.564,37.17 	"/>
	<path display="inline" fill="#514F51" d="M62.909,56.98c0,2.245-1.82,4.065-4.064,4.065c-2.247,0-4.066-1.82-4.066-4.065
		c0-2.245,1.819-4.065,4.066-4.065C61.089,52.915,62.909,54.735,62.909,56.98"/>
	<polygon display="inline" fill="#514F51" points="83.825,28.322 87.085,37.17 90.346,46.018 83.825,53.582 77.304,46.018 
		80.564,37.17 	"/>
	<path display="inline" fill="#514F51" d="M87.909,56.98c0,2.245-1.82,4.065-4.064,4.065c-2.247,0-4.066-1.82-4.066-4.065
		c0-2.245,1.819-4.065,4.066-4.065C86.089,52.915,87.909,54.735,87.909,56.98"/>
	<polygon display="inline" fill="#514F51" points="109.825,28.322 113.085,37.17 116.346,46.018 109.825,53.582 103.304,46.018 
		106.564,37.17 	"/>
	<path display="inline" fill="#514F51" d="M113.909,56.98c0,2.245-1.82,4.065-4.064,4.065c-2.247,0-4.066-1.82-4.066-4.065
		c0-2.245,1.819-4.065,4.066-4.065C112.089,52.915,113.909,54.735,113.909,56.98"/>
	<polygon display="inline" fill="#514F51" points="133.825,28.322 137.085,37.17 140.346,46.018 133.825,53.582 127.304,46.018 
		130.564,37.17 	"/>
	<path display="inline" fill="#514F51" d="M137.909,56.98c0,2.245-1.82,4.065-4.064,4.065c-2.247,0-4.066-1.82-4.066-4.065
		c0-2.245,1.819-4.065,4.066-4.065C136.089,52.915,137.909,54.735,137.909,56.98"/>
	<polygon display="inline" fill="#514F51" points="158.825,28.322 162.085,37.17 165.346,46.018 158.825,53.582 152.304,46.018 
		155.564,37.17 	"/>
	<path display="inline" fill="#514F51" d="M162.909,56.98c0,2.245-1.82,4.065-4.064,4.065c-2.247,0-4.066-1.82-4.066-4.065
		c0-2.245,1.819-4.065,4.066-4.065C161.089,52.915,162.909,54.735,162.909,56.98"/>
	<polygon display="inline" fill="#514F51" points="183.825,28.322 187.085,37.17 190.346,46.018 183.825,53.582 177.304,46.018 
		180.564,37.17 	"/>
	<path display="inline" fill="#514F51" d="M187.909,56.98c0,2.245-1.82,4.065-4.064,4.065c-2.247,0-4.066-1.82-4.066-4.065
		c0-2.245,1.819-4.065,4.066-4.065C186.089,52.915,187.909,54.735,187.909,56.98"/>
	<polygon display="inline" fill="#514F51" points="208.825,28.322 212.085,37.17 215.346,46.018 208.825,53.582 202.304,46.018 
		205.564,37.17 	"/>
	<path display="inline" fill="#514F51" d="M212.909,56.98c0,2.245-1.82,4.065-4.064,4.065c-2.247,0-4.066-1.82-4.066-4.065
		c0-2.245,1.819-4.065,4.066-4.065C211.089,52.915,212.909,54.735,212.909,56.98"/>
	<polygon display="inline" fill="#514F51" points="233.825,28.322 237.085,37.17 240.346,46.018 233.825,53.582 227.304,46.018 
		230.564,37.17 	"/>
	<path display="inline" fill="#514F51" d="M237.909,56.98c0,2.245-1.82,4.065-4.064,4.065c-2.247,0-4.066-1.82-4.066-4.065
		c0-2.245,1.819-4.065,4.066-4.065C236.089,52.915,237.909,54.735,237.909,56.98"/>
	<polygon display="inline" fill="#514F51" points="258.825,28.322 262.085,37.17 265.346,46.018 258.825,53.582 252.304,46.018 
		255.564,37.17 	"/>
	<path display="inline" fill="#514F51" d="M262.909,56.98c0,2.245-1.82,4.065-4.064,4.065c-2.247,0-4.066-1.82-4.066-4.065
		c0-2.245,1.819-4.065,4.066-4.065C261.089,52.915,262.909,54.735,262.909,56.98"/>
	<polygon display="inline" fill="#514F51" points="283.825,28.322 287.085,37.17 290.345,46.018 283.825,53.582 277.304,46.018 
		280.564,37.17 	"/>
	<path display="inline" fill="#514F51" d="M287.91,56.98c0,2.245-1.82,4.065-4.065,4.065c-2.246,0-4.065-1.82-4.065-4.065
		c0-2.245,1.819-4.065,4.065-4.065C286.09,52.915,287.91,54.735,287.91,56.98"/>
	<polygon display="inline" fill="#514F51" points="308.826,28.322 312.086,37.17 315.346,46.018 308.826,53.582 302.305,46.018 
		305.564,37.17 	"/>
	<path display="inline" fill="#514F51" d="M312.91,56.98c0,2.245-1.82,4.065-4.064,4.065c-2.247,0-4.067-1.82-4.067-4.065
		c0-2.245,1.82-4.065,4.067-4.065C311.09,52.915,312.91,54.735,312.91,56.98"/>
	<polygon display="inline" fill="#514F51" points="333.826,28.322 337.086,37.17 340.346,46.018 333.826,53.582 327.305,46.018 
		330.564,37.17 	"/>
	<path display="inline" fill="#514F51" d="M337.91,56.98c0,2.245-1.82,4.065-4.064,4.065c-2.247,0-4.067-1.82-4.067-4.065
		c0-2.245,1.82-4.065,4.067-4.065C336.09,52.915,337.91,54.735,337.91,56.98"/>
	<polygon display="inline" fill="#514F51" points="358.826,28.322 362.086,37.17 365.346,46.018 358.826,53.582 352.305,46.018 
		355.564,37.17 	"/>
	<path display="inline" fill="#514F51" d="M362.91,56.98c0,2.245-1.82,4.065-4.064,4.065c-2.247,0-4.067-1.82-4.067-4.065
		c0-2.245,1.82-4.065,4.067-4.065C361.09,52.915,362.91,54.735,362.91,56.98"/>
	<polygon display="inline" fill="#514F51" points="383.826,28.322 387.086,37.17 390.346,46.018 383.826,53.582 377.305,46.018 
		380.564,37.17 	"/>
	<path display="inline" fill="#514F51" d="M387.91,56.98c0,2.245-1.82,4.065-4.064,4.065c-2.247,0-4.067-1.82-4.067-4.065
		c0-2.245,1.82-4.065,4.067-4.065C386.09,52.915,387.91,54.735,387.91,56.98"/>
	<polygon display="inline" fill="#514F51" points="408.826,28.322 412.086,37.17 415.346,46.018 408.826,53.582 402.305,46.018 
		405.564,37.17 	"/>
	<path display="inline" fill="#514F51" d="M412.91,56.98c0,2.245-1.82,4.065-4.064,4.065c-2.247,0-4.067-1.82-4.067-4.065
		c0-2.245,1.82-4.065,4.067-4.065C411.09,52.915,412.91,54.735,412.91,56.98"/>
	<polygon display="inline" fill="#514F51" points="433.826,28.322 437.086,37.17 440.346,46.018 433.826,53.582 427.305,46.018 
		430.564,37.17 	"/>
	<path display="inline" fill="#514F51" d="M437.91,56.98c0,2.245-1.82,4.065-4.064,4.065c-2.247,0-4.067-1.82-4.067-4.065
		c0-2.245,1.82-4.065,4.067-4.065C436.09,52.915,437.91,54.735,437.91,56.98"/>
	<polygon display="inline" fill="#514F51" points="458.826,28.322 462.086,37.17 465.346,46.018 458.826,53.582 452.305,46.018 
		455.564,37.17 	"/>
	<path display="inline" fill="#514F51" d="M462.91,56.98c0,2.245-1.82,4.065-4.064,4.065c-2.247,0-4.067-1.82-4.067-4.065
		c0-2.245,1.82-4.065,4.067-4.065C461.09,52.915,462.91,54.735,462.91,56.98"/>
	<polygon display="inline" fill="#514F51" points="483.826,28.322 487.086,37.17 490.346,46.018 483.826,53.582 477.305,46.018 
		480.564,37.17 	"/>
	<path display="inline" fill="#514F51" d="M487.91,56.98c0,2.245-1.82,4.065-4.064,4.065c-2.247,0-4.067-1.82-4.067-4.065
		c0-2.245,1.82-4.065,4.067-4.065C486.09,52.915,487.91,54.735,487.91,56.98"/>
	<polygon display="inline" fill="#514F51" points="508.826,28.322 512.086,37.17 515.346,46.018 508.826,53.582 502.305,46.018 
		505.564,37.17 	"/>
	<path display="inline" fill="#514F51" d="M512.91,56.98c0,2.245-1.82,4.065-4.064,4.065c-2.247,0-4.067-1.82-4.067-4.065
		c0-2.245,1.82-4.065,4.067-4.065C511.09,52.915,512.91,54.735,512.91,56.98"/>
</g>
<g id="cl_x5F_1107_1_" display="none">
	<path display="inline" fill="#514F51" d="M531,65.99v-8.469h-20.796V31.788h-4.367v25.733h-20.633V30.787h-4.367v26.734h-20.633
		V31.788h-4.367v25.733h-20.633V31.101h-4.367v26.419h-20.633V31.788h-4.367v25.733h-20.633V30.787h-4.367v26.734h-20.633V31.788
		h-4.367v25.733h-20.633V31.101h-4.367v26.419h-20.633V31.788h-4.367v25.733h-20.633V30.787h-4.367v26.734h-20.633V31.788h-4.367
		v25.733h-20.633V31.101h-4.367v26.419h-20.633V31.853h-4.367v25.668h-20.633V31.101h-4.367v26.419h-20.633V31.788h-4.367v25.733
		h-20.633V30.787h-4.367v26.734h-19.633V31.788h-4.367v25.733H85.204V31.101h-4.367v26.419H60.204V31.853h-4.367v25.668H30.5v8.469
		h25.337v22.626H30.758v4.908h23.437l-16.875,17.001l16.961,17.09H30.758v4.908h25.079v150.998H30.5v8.469h25.337v26.838h4.367
		V291.99h20.633v26.838h4.367V291.99h21.633v26.838h4.367V291.99h19.633v26.838h4.367V291.99h20.633v26.838h4.367V291.99h20.633
		v26.838h4.367V291.99h20.633v26.838h4.367V291.99h20.633v26.838h4.367V291.99h20.633v26.838h4.367V291.99h20.633v26.838h4.367
		V291.99h20.633v26.764h4.367V291.99h20.633v26.838h4.367V291.99h20.633v26.838h4.367V291.99h20.633v26.838h4.367V291.99h20.633
		v26.838h4.367V291.99h20.633v26.838h4.367V291.99h20.633v26.838h4.367V291.99h20.633v26.838h4.367V291.99h20.633v26.838h4.367
		V291.99H531v-8.469h-20.796V132.523h20.538v-4.908h-21.274l17.381-16.482l-16.453-17.609h20.347v-4.908h-20.538V65.99H531z
		 M480.837,65.99v22.626h-20.633V65.99H480.837z M89.932,110.527l16.961,17.088H85.204V93.524h21.602L89.932,110.527z
		 M109.882,96.104l14.315,14.423l-14.315,14.421l-14.314-14.421L109.882,96.104z M129.833,110.527l-16.875-17.003h17.88v34.091
		H112.87L129.833,110.527z M135.204,93.524h20.238l-16.875,17.001l16.96,17.09h-20.323V93.524z M158.517,96.104l14.315,14.421
		l-14.315,14.423l-14.314-14.423L158.517,96.104z M178.467,110.525l-16.876-17.001h19.245v34.091h-19.331L178.467,110.525z
		 M185.204,93.524h18.871l-16.874,17.003l16.961,17.088h-18.958V93.524z M207.151,96.104l14.315,14.423l-14.315,14.421
		l-14.314-14.421L207.151,96.104z M210.139,127.615l16.962-17.088l-16.875-17.003h20.61v34.091H210.139z M235.204,93.524h19.491
		l-16.873,17l16.96,17.091h-19.577V93.524z M257.771,96.103l14.315,14.421l-14.315,14.424l-14.313-14.424L257.771,96.103z
		 M277.722,110.524l-16.875-17h19.99v34.091H260.76L277.722,110.524z M285.204,93.524h18.545l-17.284,16.397l16.532,17.693h-17.794
		V93.524z M306.836,96.11l13.879,14.852l-14.741,13.978l-13.875-14.849L306.836,96.11z M308.966,127.615l17.382-16.483
		l-16.455-17.608h20.944v34.091H308.966z M335.204,93.524h18.339l-16.451,17.605l17.379,16.485h-19.267V93.524z M356.602,96.11
		l14.74,13.979l-13.879,14.852l-14.737-13.98L356.602,96.11z M376.975,109.918l-17.288-16.394h21.15v34.091h-20.398L376.975,109.918
		z M385.204,93.524h19.792l-17.284,16.398l16.532,17.693h-19.041V93.524z M408.083,96.11l13.879,14.853l-14.741,13.977
		l-13.875-14.848L408.083,96.11z M427.595,111.133L411.14,93.524h19.697v34.091h-20.624L427.595,111.133z M435.204,93.524h18.586
		l-16.451,17.605l17.379,16.485h-19.514V93.524z M456.849,96.11l14.74,13.979L457.71,124.94l-14.737-13.98L456.849,96.11z
		 M477.222,109.918l-17.288-16.394h20.903v34.091h-20.151L477.222,109.918z M455.837,65.99v22.626h-20.633V65.99H455.837z
		 M430.837,65.99v22.626h-20.633V65.99H430.837z M405.837,65.99v22.626h-20.633V65.99H405.837z M380.837,65.99v22.626h-20.633V65.99
		H380.837z M355.837,65.99v22.626h-20.633V65.99H355.837z M330.837,65.99v22.626h-20.633V65.99H330.837z M305.837,65.99v22.626
		h-20.633V65.99H305.837z M280.837,65.99v22.626h-20.633V65.99H280.837z M255.837,65.99v22.626h-20.633V65.99H255.837z
		 M230.837,65.99v22.626h-20.633V65.99H230.837z M205.837,65.99v22.626h-20.633V65.99H205.837z M180.837,65.99v22.626h-20.633V65.99
		H180.837z M155.837,65.99v22.626h-20.633V65.99H155.837z M130.837,65.99v22.626h-19.633V65.99H130.837z M106.837,65.99v22.626
		H85.204V65.99H106.837z M60.204,65.99h20.633v22.626H60.204V65.99z M57.27,96.104l14.314,14.421L57.27,124.948l-14.314-14.423
		L57.27,96.104z M77.22,110.525L60.344,93.524h20.492v34.091H60.259L77.22,110.525z M60.204,283.521V132.523h20.633v150.998H60.204z
		 M85.204,283.521V132.523h21.633v150.998H85.204z M111.204,283.521V132.523h19.633v150.998H111.204z M135.204,283.521V132.523
		h20.633v150.998H135.204z M160.204,283.521V132.523h20.633v150.998H160.204z M185.204,283.521V132.523h20.633v150.998H185.204z
		 M210.204,283.521V132.523h20.633v150.998H210.204z M235.204,283.521V132.523h20.633v150.998H235.204z M260.204,283.521V132.523
		h20.633v150.998H260.204z M285.204,283.521V132.523h20.633v150.998H285.204z M310.204,283.521V132.523h20.633v150.998H310.204z
		 M335.204,283.521V132.523h20.633v150.998H335.204z M360.204,283.521V132.523h20.633v150.998H360.204z M385.204,283.521V132.523
		h20.633v150.998H385.204z M410.204,283.521V132.523h20.633v150.998H410.204z M435.204,283.521V132.523h20.633v150.998H435.204z
		 M460.204,283.521V132.523h20.633v150.998H460.204z M505.837,283.521h-20.633V132.523h20.633V283.521z M506.476,124.94
		l-13.875-14.848l14.737-13.982l13.878,14.853L506.476,124.94z M486.968,109.922l16.532,17.693h-18.296V93.524h19.048
		L486.968,109.922z M505.837,88.616h-20.633V65.99h20.633V88.616z"/>
</g>
<g id="cl_x5F_1103" display="none">
	<path display="inline" fill="#514F51" d="M531,65.99v-8.469h-20.796V31.069h-4.367v26.452h-20.633V30.787h-4.367v26.734h-20.633
		V31.069h-4.367v26.452h-20.633V31.101h-4.367v26.419h-20.633V31.069h-4.367v26.452h-20.633V30.787h-4.367v26.734h-20.633V31.069
		h-4.367v26.452h-20.633V31.101h-4.367v26.419h-20.633V31.069h-4.367v26.452h-20.633V30.787h-4.367v26.734h-20.633V31.069h-4.367
		v26.452h-20.633V31.101h-4.367v26.419h-20.633V31.132h-4.367v26.389h-20.633V31.101h-4.367v26.419h-20.633V31.069h-4.367v26.452
		h-20.633V30.787h-4.367v26.734h-19.633V31.069h-4.367v26.452H85.204V31.101h-4.367v26.419H60.204V31.132h-4.367v26.389H30.5v8.469
		h25.337v22.626H30.758v4.908h20.378c-7.177,2.464-12.357,9.265-12.357,17.267c0,7.55,4.605,14.044,11.153,16.824H30.758v4.908
		h25.079v150.998H30.5v8.469h25.337v26.838h4.367V291.99h20.633v26.838h4.367V291.99h21.633v26.838h4.367V291.99h19.633v26.838
		h4.367V291.99h20.633v26.838h4.367V291.99h20.633v26.838h4.367V291.99h20.633v26.838h4.367V291.99h20.633v26.838h4.367V291.99
		h20.633v26.838h4.367V291.99h20.633v26.838h4.367V291.99h20.633v26.765h4.367V291.99h20.633v26.838h4.367V291.99h20.633v26.838
		h4.367V291.99h20.633v26.838h4.367V291.99h20.633v26.838h4.367V291.99h20.633v26.838h4.367V291.99h20.633v26.838h4.367V291.99
		h20.633v26.838h4.367V291.99h20.633v26.838h4.367V291.99H531v-8.469h-20.796V132.523h20.538v-4.908H513.16
		c6.549-2.779,11.153-9.274,11.153-16.824c0-8.002-5.18-14.803-12.357-17.267h18.786v-4.908h-20.538V65.99H531z M460.204,65.99
		h20.633v22.626h-20.633V65.99z M89.779,110.791c0,7.55,4.605,14.044,11.153,16.824H85.204V93.524h16.932
		C94.959,95.988,89.779,102.789,89.779,110.791z M108.046,96.524c7.867,0,14.267,6.4,14.267,14.267s-6.4,14.267-14.267,14.267
		s-14.267-6.4-14.267-14.267S100.18,96.524,108.046,96.524z M126.313,110.791c0-8.002-5.18-14.803-12.356-17.267h16.88v34.091
		H115.16C121.708,124.835,126.313,118.341,126.313,110.791z M135.204,93.524h16.932c-7.177,2.464-12.357,9.265-12.357,17.267
		c0,7.55,4.605,14.044,11.153,16.824h-15.728V93.524z M158.046,96.524c7.867,0,14.267,6.4,14.267,14.267s-6.4,14.267-14.267,14.267
		s-14.267-6.4-14.267-14.267S150.18,96.524,158.046,96.524z M176.313,110.791c0-8.002-5.18-14.803-12.356-17.267h16.88v34.091
		H165.16C171.708,124.835,176.313,118.341,176.313,110.791z M185.204,93.524h16.932c-7.177,2.464-12.357,9.265-12.357,17.267
		c0,7.55,4.605,14.044,11.153,16.824h-15.728V93.524z M208.046,96.524c7.867,0,14.267,6.4,14.267,14.267s-6.4,14.267-14.267,14.267
		s-14.267-6.4-14.267-14.267S200.18,96.524,208.046,96.524z M226.313,110.791c0-8.002-5.18-14.803-12.356-17.267h16.88v34.091
		H215.16C221.708,124.835,226.313,118.341,226.313,110.791z M235.204,93.524h16.932c-7.177,2.464-12.357,9.265-12.357,17.267
		c0,7.55,4.605,14.044,11.153,16.824h-15.728V93.524z M258.046,96.524c7.867,0,14.267,6.4,14.267,14.267s-6.4,14.267-14.267,14.267
		s-14.267-6.4-14.267-14.267S250.18,96.524,258.046,96.524z M276.313,110.791c0-8.002-5.18-14.803-12.356-17.267h16.88v34.091
		H265.16C271.708,124.835,276.313,118.341,276.313,110.791z M285.204,93.524h16.932c-7.177,2.464-12.356,9.265-12.356,17.267
		c0,7.55,4.605,14.044,11.153,16.824h-15.728V93.524z M308.046,96.524c7.867,0,14.268,6.4,14.268,14.267s-6.4,14.267-14.268,14.267
		c-7.866,0-14.267-6.4-14.267-14.267S300.18,96.524,308.046,96.524z M326.313,110.791c0-8.002-5.18-14.803-12.357-17.267h16.88
		v34.091H315.16C321.709,124.835,326.313,118.341,326.313,110.791z M335.204,93.524h16.932c-7.177,2.464-12.356,9.265-12.356,17.267
		c0,7.55,4.605,14.044,11.153,16.824h-15.728V93.524z M358.046,96.524c7.867,0,14.268,6.4,14.268,14.267s-6.4,14.267-14.268,14.267
		c-7.866,0-14.267-6.4-14.267-14.267S350.18,96.524,358.046,96.524z M376.313,110.791c0-8.002-5.18-14.803-12.357-17.267h16.88
		v34.091H365.16C371.709,124.835,376.313,118.341,376.313,110.791z M385.204,93.524h16.932c-7.177,2.464-12.356,9.265-12.356,17.267
		c0,7.55,4.605,14.044,11.153,16.824h-15.728V93.524z M408.046,96.524c7.867,0,14.268,6.4,14.268,14.267s-6.4,14.267-14.268,14.267
		c-7.866,0-14.267-6.4-14.267-14.267S400.18,96.524,408.046,96.524z M426.313,110.791c0-8.002-5.18-14.803-12.357-17.267h16.88
		v34.091H415.16C421.709,124.835,426.313,118.341,426.313,110.791z M435.204,93.524h16.932c-7.177,2.464-12.356,9.265-12.356,17.267
		c0,7.55,4.605,14.044,11.153,16.824h-15.728V93.524z M458.046,96.524c7.867,0,14.268,6.4,14.268,14.267s-6.4,14.267-14.268,14.267
		c-7.866,0-14.267-6.4-14.267-14.267S450.18,96.524,458.046,96.524z M476.313,110.791c0-8.002-5.18-14.803-12.357-17.267h16.88
		v34.091H465.16C471.709,124.835,476.313,118.341,476.313,110.791z M455.837,65.99v22.626h-20.633V65.99H455.837z M410.204,65.99
		h20.633v22.626h-20.633V65.99z M405.837,65.99v22.626h-20.633V65.99H405.837z M360.204,65.99h20.633v22.626h-20.633V65.99z
		 M355.837,65.99v22.626h-20.633V65.99H355.837z M305.837,65.99v22.604h4.367V65.99h20.633v22.626h-45.633V65.99H305.837z
		 M260.204,65.99h20.633v22.626h-20.633V65.99z M255.837,65.99v22.626h-20.633V65.99H255.837z M210.204,65.99h20.633v22.626h-20.633
		V65.99z M205.837,65.99v22.626h-20.633V65.99H205.837z M160.204,65.99h20.633v22.626h-20.633V65.99z M155.837,65.99v22.626h-20.633
		V65.99H155.837z M111.204,65.99h19.633v22.626h-19.633V65.99z M106.837,65.99v22.626H85.204V65.99H106.837z M60.204,65.99h20.633
		v22.626H60.204V65.99z M42.779,110.791c0-7.867,6.4-14.267,14.267-14.267s14.267,6.4,14.267,14.267s-6.4,14.267-14.267,14.267
		S42.779,118.658,42.779,110.791z M75.313,110.791c0-8.002-5.18-14.803-12.356-17.267h17.88v34.091H64.16
		C70.708,124.835,75.313,118.341,75.313,110.791z M60.204,283.521V132.523h20.633v150.998H60.204z M85.204,283.521V132.523h21.633
		v150.998H85.204z M111.204,283.521V132.523h19.633v150.998H111.204z M135.204,283.521V132.523h20.633v150.998H135.204z
		 M160.204,283.521V132.523h20.633v150.998H160.204z M185.204,283.521V132.523h20.633v150.998H185.204z M210.204,283.521V132.523
		h20.633v150.998H210.204z M235.204,283.521V132.523h20.633v150.998H235.204z M260.204,283.521V132.523h20.633v150.998H260.204z
		 M285.204,283.521V132.523h20.633v150.998H285.204z M310.204,283.521V132.523h20.633v150.998H310.204z M335.204,283.521V132.523
		h20.633v150.998H335.204z M360.204,283.521V132.523h20.633v150.998H360.204z M385.204,283.521V132.523h20.633v150.998H385.204z
		 M410.204,283.521V132.523h20.633v150.998H410.204z M435.204,283.521V132.523h20.633v150.998H435.204z M460.204,283.521V132.523
		h20.633v150.998H460.204z M505.837,283.521h-20.633V132.523h20.633V283.521z M520.313,110.791c0,7.867-6.4,14.267-14.268,14.267
		c-7.866,0-14.267-6.4-14.267-14.267s6.4-14.267,14.267-14.267C513.913,96.524,520.313,102.924,520.313,110.791z M487.779,110.791
		c0,7.55,4.605,14.044,11.153,16.824h-13.728V93.524h14.932C492.959,95.988,487.779,102.789,487.779,110.791z M485.204,88.616V65.99
		h20.633v22.626H485.204z"/>
</g>
<g id="cl_x5F_1001">
	<g id="latten_Kopie">
		<path fill="#514F51" d="M531,65.99v-8.469h-20.796v-22h-4.367v22h-20.633v-22h-4.367v22h-20.633v-22h-4.367v22h-20.633v-21.69
			h-4.367v21.69h-20.633v-22h-4.367v22h-20.633v-22h-4.367v22h-20.633v-22h-4.367v22h-20.633v-21.69h-4.367v21.69h-20.633v-22
			h-4.367v22h-20.633v-22h-4.367v22h-20.633v-22h-4.367v22h-20.633v-21.69h-4.367v21.69h-20.633v-21.69h-4.367v21.69h-20.633v-21.69
			h-4.367v21.69h-20.633v-22h-4.367v22h-20.633v-22h-4.367v22h-19.633v-22h-4.367v22H85.204v-21.69h-4.367v21.69H60.204v-21.69
			h-4.367v21.69H30.5v8.469h25.337v217.532H30.5v8.469h25.337v26.838h4.367V291.99h20.633v26.838h4.367V291.99h21.633v26.838h4.367
			V291.99h19.633v26.838h4.367V291.99h20.633v26.838h4.367V291.99h20.633v26.838h4.367V291.99h20.633v26.838h4.367V291.99h20.633
			v26.838h4.367V291.99h20.633v26.838h4.367V291.99h20.633v26.838h4.367V291.99h20.633v26.728h4.367V291.99h20.633v26.838h4.367
			V291.99h20.633v26.838h4.367V291.99h20.633v26.838h4.367V291.99h20.633v26.838h4.367V291.99h20.633v26.838h4.367V291.99h20.633
			v26.838h4.367V291.99h20.633v26.838h4.367V291.99h20.633v26.838h4.367V291.99H531v-8.469h-20.796V65.99H531z M60.204,283.521
			V65.99h20.633v217.532H60.204z M85.204,283.521V65.99h21.633v217.532H85.204z M111.204,283.521V65.99h19.633v217.532H111.204z
			 M135.204,283.521V65.99h20.633v217.532H135.204z M160.204,283.521V65.99h20.633v217.532H160.204z M185.204,283.521V65.99h20.633
			v217.532H185.204z M210.204,283.521V65.99h20.633v217.532H210.204z M235.204,283.521V65.99h20.633v217.532H235.204z
			 M260.204,283.521V65.99h20.633v217.532H260.204z M285.204,283.521V65.99h20.633v217.532H285.204z M310.204,283.521V65.99h20.633
			v217.532H310.204z M335.204,283.521V65.99h20.633v217.532H335.204z M360.204,283.521V65.99h20.633v217.532H360.204z
			 M385.204,283.521V65.99h20.633v217.532H385.204z M410.204,283.521V65.99h20.633v217.532H410.204z M435.204,283.521V65.99h20.633
			v217.532H435.204z M460.204,283.521V65.99h20.633v217.532H460.204z M505.837,283.521h-20.633V65.99h20.633V283.521z"/>
		<ellipse display="none" opacity="0.3" fill="#514F51" cx="284.555" cy="131.453" rx="358.5" ry="132"/>
	</g>
</g>
<g id="cl_x5F_1002" display="none">
	<path display="inline" fill="#514F51" d="M531,70.145v-8.329h-20.796V35.521h-4.367v26.295h-20.215v-8.018
		c0.024-0.389,0.053-0.776,0.053-1.172c0,0,0,0,0,0c0-9.432-6.82-17.105-15.204-17.105s-15.204,7.673-15.205,17.105h4.356
		c0-6.881,5.222-12.479,10.849-12.479c5.625,0,10.782,5.601,10.784,12.479v9.19h-21.633v-9.189h-4.367v9.189h-20.05V35.831h-4.367
		v25.985h-20.215v-8.018c0.024-0.389,0.053-0.776,0.053-1.172c0,0,0,0,0,0c0-9.432-6.82-17.105-15.204-17.105
		s-15.204,7.673-15.205,17.105h4.356c0-6.881,5.222-12.479,10.849-12.479c5.625,0,10.782,5.601,10.784,12.479v9.19h-21.633v-9.189
		h-4.367v9.189h-20.05V35.521h-4.367v26.295h-20.215v-8.018c0.024-0.389,0.053-0.776,0.053-1.172c0,0,0,0,0,0
		c0-9.432-6.82-17.105-15.204-17.105s-15.204,7.673-15.205,17.105h4.356c0-6.881,5.222-12.479,10.849-12.479
		c5.625,0,10.782,5.601,10.784,12.479v9.19h-21.633v-9.189h-4.367v9.189h-20.05V35.521h-4.367v26.295h-20.215v-8.018
		c0.024-0.389,0.053-0.776,0.053-1.172c0,0,0,0,0,0c0-9.432-6.82-17.105-15.204-17.105s-15.204,7.673-15.205,17.105h4.356
		c0-6.881,5.222-12.479,10.849-12.479c5.625,0,10.782,5.601,10.784,12.479v9.19h-21.633v-9.189h-4.367v9.189h-20.05V35.831h-4.367
		v25.985h-20.215v-8.018c0.024-0.389,0.053-0.776,0.053-1.172c0,0,0,0,0,0c0-9.432-6.82-17.105-15.204-17.105
		s-15.204,7.673-15.205,17.105h4.356c0-6.881,5.222-12.479,10.849-12.479c5.625,0,10.782,5.601,10.784,12.479v9.19h-21.633v-9.189
		h-4.367v9.189h-20.05V35.521h-4.367v26.295h-19.633v-8.018c0.024-0.389,0.053-0.776,0.053-1.172c0,0,0,0,0,0
		c0-9.432-6.82-17.105-15.204-17.105s-15.204,7.673-15.205,17.105h4.356c0-6.881,5.222-12.479,10.849-12.479
		c5.625,0,10.782,5.601,10.784,12.479v9.19H85.204v-9.189h-4.367v9.189H60.204V35.831h-4.367v25.985H30.5v8.329h25.337v213.956H30.5
		v8.329h25.337v26.397h4.367v-26.397h20.633v26.397h4.367v-26.397h21.633v26.397h4.367v-26.397h19.633v26.397h4.367v-26.397h20.05
		v26.397h4.367v-26.397h21.633v26.397h4.367v-26.397h20.215v26.397h4.367v-26.397h20.05v26.397h4.367v-26.397h21.633v26.397h4.367
		v-26.397h20.215v26.397h4.367v-26.397h20.05v26.397h4.367v-26.397h21.633v26.397h4.367v-26.397h20.215v26.397h4.367v-26.397h20.05
		v26.397h4.367v-26.397h21.633v26.397h4.367v-26.397h20.215v26.397h4.367v-26.397h20.05v26.397h4.367v-26.397h21.633v26.397h4.367
		v-26.397h20.215v26.397h4.367v-26.397H531v-8.329h-20.796V70.145H531z M60.204,284.102V70.145h20.633v213.956H60.204z
		 M85.204,284.102V70.145h21.633v213.956H85.204z M111.204,284.102V70.145h19.633v213.956H111.204z M135.204,284.102V70.145h20.05
		v213.956H135.204z M159.622,284.102V70.145h21.633v213.956H159.622z M185.622,284.102V70.145h20.215v213.956H185.622z
		 M210.204,284.102V70.145h20.05v213.956H210.204z M234.622,284.102V70.145h21.633v213.956H234.622z M260.622,284.102V70.145h20.215
		v213.956H260.622z M285.204,284.102V70.145h20.05v213.956H285.204z M309.622,284.102V70.145h21.633v213.956H309.622z
		 M335.622,284.102V70.145h20.215v213.956H335.622z M360.204,284.102V70.145h20.05v213.956H360.204z M384.622,284.102V70.145h21.633
		v213.956H384.622z M410.622,284.102V70.145h20.215v213.956H410.622z M435.204,284.102V70.145h20.05v213.956H435.204z
		 M459.622,284.102V70.145h21.633v213.956H459.622z M505.837,284.102h-20.215V70.145h20.215V284.102z"/>
</g>
<g id="cl_x5F_1111" display="none">
	<path display="inline" fill="#514F51" d="M531.372,35.521h-500.5v8.469h50.872L64.692,60.316l15.54,16.229H30.872v4.908h25.174
		v229.068H30.872v8.469h497.281v0H530v-8.468h-1.847h-7.675H507.49V81.453h23.883v-4.908h-45.565l16.102-15.416L485.502,43.99h45.87
		V35.521z M135.005,43.99h46.554l-17.05,16.326l15.539,16.229h-45.043V43.99z M80.885,310.521h-20.5V81.453h20.5V310.521z
		 M70.348,60.439l13.33-12.762l12.759,13.329l-13.327,12.76L70.348,60.439z M106.717,310.521H85.224V81.453h21.494V310.521z
		 M130.46,310.521h-19.404V81.453h19.404V310.521z M130.46,76.545H85.99l16.101-15.416L85.685,43.99h44.775V76.545z
		 M180.241,310.521h-45.236V81.453h20.318v228.892h4.497V81.453h20.421V310.521z M170.165,60.439l13.329-12.762l12.76,13.329
		l-13.328,12.76L170.165,60.439z M204.93,310.521h-20.349V81.453h20.349V310.521z M229.92,310.521h-20.349V81.453h20.349V310.521z
		 M229.92,76.545h-44.114l16.102-15.416L185.501,43.99h44.419V76.545z M254.759,310.521h-20.5V82.048l20.5,18.514V310.521z
		 M279.598,310.521h-20.5V104.481l20.5,18.513V310.521z M279.598,100.532v17.471l-45.339-40.945V43.99h46.949v10.392l-23.732,22.721
		l22.434,23.429H279.598z M263.131,77.226l20.482-19.61l19.606,20.48L282.74,97.705L263.131,77.226z M304.437,310.521h-20.5v-187.22
		l20.5-18.514V310.521z M329.276,310.521h-20.5V100.869l20.5-18.514V310.521z M329.276,77.365l-24.652,22.263h-0.188v0.169
		l-20.5,18.514v-16.215l24.939-23.877l-23.301-24.338V43.99h43.701V77.365z M354.115,310.521h-20.5V81.453h20.5V310.521z
		 M378.955,310.521h-20.5V81.453h20.5V310.521z M333.615,76.545V43.99h47.946l-17.052,16.326l15.54,16.229H333.615z M370.165,60.439
		l13.329-12.762l12.759,13.329l-13.327,12.76L370.165,60.439z M403.794,310.521h-20.5V81.453h20.5V310.521z M428.633,310.521h-20.5
		V81.453h20.5V310.521z M428.633,76.545h-42.826l16.102-15.416L385.502,43.99h43.131V76.545z M453.472,310.521h-20.5V81.453h20.5
		V310.521z M478.311,310.521h-20.5V81.453h20.5V310.521z M432.972,76.545V43.99h48.589l-17.052,16.326l15.54,16.229H432.972z
		 M503.151,81.453v229.068h-20.5V81.453H503.151z M496.253,61.006l-13.327,12.76l-12.761-13.327l13.329-12.762L496.253,61.006z"/>
</g>
<g id="cl_x5F_1112" display="none">
	<g id="elemente_Kopie_2_Kopie_Kopie_Kopie_Kopie" display="inline">
		<path fill="#514F51" d="M510.575,69.155V44.703h20.797v-9.182h-500.5v9.182h25.337v24.452v2.686v26.585H30.872v5.321h25.337
			v206.06H30.872v9.181h500.5v-9.181h-20.797v-206.06H530v-5.321h-19.425V71.842V69.155z M506.208,69.155h-16.532V56.703h-37.231
			v12.452h-16.87V44.703h70.633V69.155z M486.676,71.842v9.253h-31.231v-9.253v-2.686v-9.199h31.231v9.199V71.842z M481.208,103.748
			v206.06h-20.633v-206.06H481.208z M456.208,309.808h-20.633v-206.06h20.633V309.808z M431.208,309.808h-20.633v-206.06h20.633
			V309.808z M306.208,103.768v206.041h-20.633v-206.06h45.633v206.06h-20.633V103.768H306.208z M231.208,103.768v206.041h-20.633
			v-206.06h45.633v206.06h-20.633V103.768H231.208z M107.208,103.748v206.06H85.576v-206.06H107.208z M111.576,103.748h19.633
			v206.06h-19.633V103.748z M135.576,103.748h20.633v206.06h-20.633V103.748z M285.575,98.427V71.842h16.87v12.506h37.231V71.842
			h16.532v26.585H285.575z M210.576,98.427V71.842h16.87v12.506h37.231V71.842h16.532v26.585H210.576z M230.445,69.155v-9.199
			h31.231v9.199v2.686v9.253h-31.231v-9.253V69.155z M305.445,69.155v-9.199h31.231v9.199v2.686v9.253h-31.231v-9.253V69.155z
			 M339.676,69.155V56.703h-37.231v12.452h-16.87V44.703h70.633v24.452H339.676z M281.208,69.155h-16.532V56.703h-37.231v12.452
			h-16.87V44.703h70.632V69.155z M206.208,69.155h-16.532V56.703h-37.231v12.452h-16.87V44.703h70.633V69.155z M186.676,71.842
			v9.253h-31.231v-9.253v-2.686v-9.199h31.231v9.199V71.842z M152.445,71.842v12.506h37.231V71.842h16.532v26.585h-70.633V71.842
			H152.445z M160.576,103.748h20.633v206.06h-20.633V103.748z M185.576,103.748h20.633v206.06h-20.633V103.748z M260.576,103.748
			h20.632v206.06h-20.632V103.748z M335.575,103.748h20.633v206.06h-20.633V103.748z M360.575,103.748h20.633v206.06h-20.633
			V103.748z M385.575,103.748h20.633v206.06h-20.633V103.748z M360.575,98.427V71.842h15.87v12.506h37.231V71.842h17.532v26.585
			H360.575z M379.445,69.155v-9.199h31.231v9.199v2.686v9.253h-31.231v-9.253V69.155z M413.676,69.155V56.703h-37.231v12.452h-15.87
			V44.703h70.633v24.452H413.676z M60.576,44.703h70.633v24.452h-15.532V56.703H78.445v12.452h-17.87V44.703z M112.676,71.842v9.253
			H81.445v-9.253v-2.686v-9.199h31.231v9.199V71.842z M60.576,71.842h17.87v12.506h37.231V71.842h15.532v26.585H60.576V71.842z
			 M60.576,103.748h20.633v206.06H60.576V103.748z M506.208,309.808h-20.633v-206.06h20.633V309.808z M506.208,98.427h-70.633
			V71.842h16.87v12.506h37.231V71.842h16.532V98.427z"/>
	</g>
</g>
<g id="cl_x5F_1117" display="none">
	<path display="inline" fill="#514F51" d="M531.372,44.703v-9.182h-500.5v9.182h25.337v265.106H30.872v9.181h500.5v-9.181h-20.797
		V44.703H531.372z M111.576,44.703h19.633v265.106h-19.633V44.703z M107.208,309.808H85.576V44.703h21.633V309.808z M135.576,44.703
		h20.633v265.106h-20.633V44.703z M160.576,44.703h20.633v265.106h-20.633V44.703z M185.576,44.703h20.633v265.106h-20.633V44.703z
		 M210.576,44.703h20.633v265.106h-20.633V44.703z M235.576,44.703h20.633v265.106h-20.633V44.703z M260.576,44.703h20.632v265.106
		h-20.632V44.703z M285.575,44.703h20.633v265.106h-20.633V44.703z M310.575,44.703h20.633v265.106h-20.633V44.703z M335.575,44.703
		h20.633v265.106h-20.633V44.703z M360.575,44.703h20.633v265.106h-20.633V44.703z M385.575,44.703h20.633v265.106h-20.633V44.703z
		 M410.575,44.703h20.633v265.106h-20.633V44.703z M435.575,44.703h20.633v265.106h-20.633V44.703z M460.575,44.703h20.633v265.106
		h-20.633V44.703z M60.576,44.703h20.633v265.106H60.576V44.703z M506.208,309.808h-20.633V44.703h20.633V309.808z"/>
	<g id="rauten_2_" display="inline">
		
			<rect x="257.142" y="153.179" transform="matrix(0.7071 -0.7071 0.7071 0.7071 -43.5937 252.2694)" fill="#FFFFFF" stroke="#514F51" stroke-width="4" stroke-miterlimit="10" width="51.155" height="51.155"/>
		
			<rect x="229.386" y="161.674" transform="matrix(0.7071 -0.7071 0.7071 0.7071 -54.2099 226.641)" fill="#FFFFFF" stroke="#514F51" stroke-width="4" stroke-miterlimit="10" width="34.163" height="34.163"/>
		
			<rect x="303.559" y="161.676" transform="matrix(0.7071 -0.7071 0.7071 0.7071 -32.4869 279.084)" fill="#FFFFFF" stroke="#514F51" stroke-width="4" stroke-miterlimit="10" width="34.163" height="34.163"/>
	</g>
</g>
<g id="convex_Kopie" display="none">
	<g display="inline">
		<polygon fill="#514F51" points="305.837,58.757 305.837,65.99 310.204,65.99 310.204,58.757 310.204,7.453 305.837,7.453 		"/>
		<polygon fill="#514F51" points="80.837,58.757 80.837,65.99 85.204,65.99 85.204,58.757 85.204,28.378 80.837,28.378 		"/>
		<polygon fill="#514F51" points="130.837,58.757 130.837,65.99 135.204,65.99 135.204,58.757 135.204,18.556 130.837,18.556 		"/>
		<polygon fill="#514F51" points="180.837,58.757 180.837,65.99 185.204,65.99 185.204,58.757 185.204,13.005 180.837,13.005 		"/>
		<polygon fill="#514F51" points="230.837,58.757 230.837,65.99 235.204,65.99 235.204,58.757 235.204,9.163 230.837,9.163 		"/>
		<polygon fill="#514F51" points="330.837,58.757 330.837,65.99 335.204,65.99 335.204,58.757 335.204,9.163 330.837,9.163 		"/>
		<polygon fill="#514F51" points="355.837,58.757 355.837,65.99 360.204,65.99 360.204,58.757 360.204,10.638 355.837,10.638 		"/>
		<polygon fill="#514F51" points="380.837,58.757 380.837,65.99 385.204,65.99 385.204,58.757 385.204,13.005 380.837,13.005 		"/>
		<polygon fill="#514F51" points="405.837,58.757 405.837,65.99 410.204,65.99 410.204,58.757 410.204,15.994 405.837,15.994 		"/>
		<polygon fill="#514F51" points="430.837,58.757 430.837,65.99 435.204,65.99 435.204,58.757 435.204,18.556 430.837,18.556 		"/>
		<polygon fill="#514F51" points="455.837,58.757 455.837,65.99 460.204,65.99 460.204,58.757 460.204,23.412 455.837,23.412 		"/>
		<polygon fill="#514F51" points="480.837,58.757 480.837,65.99 485.204,65.99 485.204,58.757 485.204,28.378 480.837,28.378 		"/>
		<polygon fill="#514F51" points="505.837,35.923 505.837,58.757 505.837,65.99 510.204,65.99 510.204,58.757 510.204,35.923 		"/>
		<polygon fill="#514F51" points="106.837,58.757 106.837,65.99 111.204,65.99 111.204,58.757 111.204,23.695 106.837,23.695 		"/>
		<polygon fill="#514F51" points="55.837,58.757 55.837,65.99 60.204,65.99 60.204,58.757 60.204,36.192 55.837,36.192 		"/>
		<polygon fill="#514F51" points="155.837,58.757 155.837,65.99 160.204,65.99 160.204,58.757 160.204,15.994 155.837,15.994 		"/>
		<polygon fill="#514F51" points="205.837,58.757 205.837,65.99 210.204,65.99 210.204,58.757 210.204,10.638 205.837,10.638 		"/>
		<polygon fill="#514F51" points="255.837,58.757 255.837,65.99 260.204,65.99 260.204,58.757 260.204,7.453 255.837,7.453 		"/>
		<polygon fill="#514F51" points="280.837,58.757 280.837,65.99 285.204,65.99 285.204,58.757 285.204,7.453 280.837,7.453 		"/>
	</g>
</g>
<g id="kugel" display="none">
	<circle display="inline" fill="#514F51" cx="20.021" cy="15.248" r="12"/>
	<circle display="inline" fill="#514F51" cx="540.021" cy="15.248" r="12"/>
</g>
<g id="mauer">
	<rect id="Mauer_x5F_links" y="26.549" fill="#D5D7DD" width="31" height="306.904"/>
	<rect id="Mauer_x5F_rechts" x="530" y="26.549" fill="#D5D7DD" width="33.109" height="306.904"/>
</g>
<g id="pfosten" display="none">
	<rect id="Pfosten_x5F_links" x="8.982" y="31.121" display="inline" fill="#514F51" width="22.018" height="302.332"/>
	<rect id="Pfosten_x5F_rechts" x="528.982" y="31.121" display="inline" fill="#514F51" width="22.018" height="302.332"/>
	<polygon display="inline" fill="#4E4D4D" points="31.384,29.876 26.057,26.549 13.99,26.549 8.662,29.876 8.122,30.213 
		8.122,30.317 8.122,32.063 31.861,32.063 31.861,30.317 31.861,30.173 	"/>
	<polygon display="inline" fill="#4E4D4D" points="551.384,29.876 546.057,26.549 533.99,26.549 528.662,29.876 528.122,30.213 
		528.122,30.317 528.122,32.063 551.861,32.063 551.861,30.317 551.861,30.173 	"/>
</g>
<g id="limien">
</g>
</svg>
