<?xml version="1.0" encoding="utf-8"?>
<!-- Generator: Adobe Illustrator 16.0.4, SVG Export Plug-In . SVG Version: 6.00 Build 0)  -->
<!DOCTYPE svg PUBLIC "-//W3C//DTD SVG 1.1//EN" "http://www.w3.org/Graphics/SVG/1.1/DTD/svg11.dtd">
<svg version="1.1" xmlns="http://www.w3.org/2000/svg" xmlns:xlink="http://www.w3.org/1999/xlink" x="0px" y="0px"
	 width="563.109px" height="344.333px" viewBox="0 0 563.109 344.333" enable-background="new 0 0 563.109 344.333"
	 xml:space="preserve">
<g id="kugel" display="none">
	<circle display="inline" fill="#373034" cx="20.991" cy="12" r="12"/>
	<circle display="inline" fill="#373034" cx="540.991" cy="12" r="12"/>
</g>
<g id="spitz">
	<polygon fill="#373034" points="32,23.318 27.794,21.566 21,18.736 14.206,21.566 9.982,23.325 9.982,24.396 21,24.396 32,24.396 	
		"/>
	<polygon fill="#373034" points="552,23.318 547.794,21.566 541,18.736 534.206,21.566 529.982,23.325 529.982,24.396 541,24.396 
		552,24.396 	"/>
</g>
<g id="cl_x5F_1111">
	<rect x="31.167" y="53.402" fill="#373034" width="500.5" height="8.469"/>
	<rect x="31.167" y="306.402" fill="#373034" width="500.5" height="8.469"/>
	<rect x="81.504" y="97.88" fill="#373034" width="4.367" height="210.06"/>
	<rect x="131.504" y="57.636" fill="#373034" width="4.367" height="253.001"/>
	<rect x="181.504" y="97.88" fill="#373034" width="4.367" height="210.06"/>
	<rect x="231.504" y="55.334" fill="#373034" width="4.367" height="255.303"/>
	<rect x="331.504" y="55.334" fill="#373034" width="4.367" height="255.302"/>
	<rect x="356.504" y="97.542" fill="#373034" width="4.367" height="210.398"/>
	<rect x="381.504" y="97.88" fill="#373034" width="4.367" height="212.756"/>
	<rect x="406.504" y="97.542" fill="#373034" width="4.367" height="213.095"/>
	<rect x="431.504" y="55.334" fill="#373034" width="4.367" height="255.302"/>
	<rect x="456.504" y="97.542" fill="#373034" width="4.367" height="213.095"/>
	<rect x="481.504" y="95.334" fill="#373034" width="4.367" height="215.303"/>
	<rect x="506.504" y="97.542" fill="#373034" width="4.367" height="213.095"/>
	<rect x="107.504" y="96.926" fill="#373034" width="4.367" height="211.014"/>
	<rect x="56.504" y="96.926" fill="#373034" width="4.367" height="211.014"/>
	<rect x="156.504" y="96.926" fill="#373034" width="4.367" height="213.71"/>
	<rect x="206.504" y="96.926" fill="#373034" width="4.367" height="211.014"/>
	<rect x="256.504" y="119.509" fill="#373034" width="4.367" height="191.128"/>
	<rect x="281.504" y="59.667" fill="#373034" width="4.367" height="250.969"/>
	<rect x="306.504" y="119.509" fill="#373034" width="4.367" height="191.127"/>
	<rect x="31.167" y="95.426" fill="#373034" width="201.74" height="4.908"/>
	<rect x="333.168" y="95.426" fill="#373034" width="201.74" height="4.908"/>
	<polygon fill="#373034" points="285.811,140.748 283.418,143.592 232.908,98.27 235.3,95.426 	"/>
	<polygon fill="#373034" points="334.811,98.27 332.418,95.426 281.908,140.748 284.301,143.592 	"/>
	
		<rect x="267.296" y="81.363" transform="matrix(0.6916 0.7223 -0.7223 0.6916 157.87 -174.6625)" fill="#FFFFFF" stroke="#373034" stroke-width="4" stroke-miterlimit="10" width="32.353" height="32.356"/>
	
		<rect x="72.464" y="67.375" transform="matrix(0.6916 0.7223 -0.7223 0.6916 82.5795 -36.2062)" fill="none" stroke="#373034" stroke-width="4" stroke-miterlimit="10" width="22.451" height="22.454"/>
	
		<rect x="172.28" y="67.375" transform="matrix(0.6916 0.7223 -0.7223 0.6916 113.3667 -108.3017)" fill="none" stroke="#373034" stroke-width="4" stroke-miterlimit="10" width="22.451" height="22.453"/>
	
		<rect x="372.28" y="67.375" transform="matrix(0.6916 0.7223 -0.7223 0.6916 175.0424 -252.7558)" fill="none" stroke="#373034" stroke-width="4" stroke-miterlimit="10" width="22.451" height="22.454"/>
	
		<rect x="472.28" y="67.375" transform="matrix(0.6916 0.7223 -0.7223 0.6916 205.8816 -324.9831)" fill="none" stroke="#373034" stroke-width="4" stroke-miterlimit="10" width="22.451" height="22.454"/>
</g>
<g id="mauer">
	<rect id="Mauer_x5F_links" y="23.333" fill="#CCCCCC" width="31" height="321"/>
	<rect id="Mauer_x5F_rechts" x="530" y="23.333" fill="#CCCCCC" width="33.109" height="321"/>
</g>
<g id="pfosten" display="none">
	<rect id="Pfosten_x5F_links" x="9.982" y="23.333" display="inline" fill="#373034" width="22.018" height="321"/>
	<rect id="Pfosten_x5F_rechts" x="529.982" y="23.333" display="inline" fill="#373034" width="22.018" height="321"/>
</g>
</svg>
